solid CATIA STL
  facet normal  0.000000e+000  0.000000e+000  9.999999e-001
    outer loop
      vertex -1.536144e-002  7.722718e-002  1.181102e-001
      vertex  1.536144e-002  7.722718e-002  1.181102e-001
      vertex  4.821285e-018  7.874016e-002  1.181102e-001
    endloop
  endfacet
  facet normal  -0.000000e+000  0.000000e+000  1.000000e+000
    outer loop
      vertex  1.536144e-002  7.722718e-002  1.181102e-001
      vertex -1.536144e-002  7.722718e-002  1.181102e-001
      vertex  3.013255e-002  7.274642e-002  1.181102e-001
    endloop
  endfacet
  facet normal  0.000000e+000  0.000000e+000  1.000000e+000
    outer loop
      vertex  3.013255e-002  7.274642e-002  1.181102e-001
      vertex -1.536144e-002  7.722718e-002  1.181102e-001
      vertex -3.013255e-002  7.274642e-002  1.181102e-001
    endloop
  endfacet
  facet normal  -0.000000e+000  0.000000e+000  1.000000e+000
    outer loop
      vertex  3.013255e-002  7.274642e-002  1.181102e-001
      vertex -3.013255e-002  7.274642e-002  1.181102e-001
      vertex  4.374569e-002  6.547005e-002  1.181102e-001
    endloop
  endfacet
  facet normal  0.000000e+000  0.000000e+000  9.999999e-001
    outer loop
      vertex  4.374569e-002  6.547005e-002  1.181102e-001
      vertex -3.013255e-002  7.274642e-002  1.181102e-001
      vertex -4.374569e-002  6.547005e-002  1.181102e-001
    endloop
  endfacet
  facet normal  -0.000000e+000  0.000000e+000  1.000000e+000
    outer loop
      vertex  4.374569e-002  6.547005e-002  1.181102e-001
      vertex -4.374569e-002  6.547005e-002  1.181102e-001
      vertex  5.567770e-002  5.567770e-002  1.181102e-001
    endloop
  endfacet
  facet normal  0.000000e+000  0.000000e+000  1.000000e+000
    outer loop
      vertex  5.567770e-002  5.567770e-002  1.181102e-001
      vertex -4.374569e-002  6.547005e-002  1.181102e-001
      vertex -5.567770e-002  5.567770e-002  1.181102e-001
    endloop
  endfacet
  facet normal  -0.000000e+000  0.000000e+000  1.000000e+000
    outer loop
      vertex  5.567770e-002  5.567770e-002  1.181102e-001
      vertex -5.567770e-002  5.567770e-002  1.181102e-001
      vertex  6.547005e-002  4.374569e-002  1.181102e-001
    endloop
  endfacet
  facet normal  0.000000e+000  0.000000e+000  1.000000e+000
    outer loop
      vertex  6.547005e-002  4.374569e-002  1.181102e-001
      vertex -5.567770e-002  5.567770e-002  1.181102e-001
      vertex -6.547005e-002  4.374569e-002  1.181102e-001
    endloop
  endfacet
  facet normal  -0.000000e+000  0.000000e+000  1.000000e+000
    outer loop
      vertex  6.547005e-002  4.374569e-002  1.181102e-001
      vertex -6.547005e-002  4.374569e-002  1.181102e-001
      vertex  7.274642e-002  3.013255e-002  1.181102e-001
    endloop
  endfacet
  facet normal  0.000000e+000  0.000000e+000  1.000000e+000
    outer loop
      vertex  7.274642e-002  3.013255e-002  1.181102e-001
      vertex -6.547005e-002  4.374569e-002  1.181102e-001
      vertex -7.274642e-002  3.013255e-002  1.181102e-001
    endloop
  endfacet
  facet normal  -0.000000e+000  0.000000e+000  1.000000e+000
    outer loop
      vertex  7.274642e-002  3.013255e-002  1.181102e-001
      vertex -7.274642e-002  3.013255e-002  1.181102e-001
      vertex  7.722718e-002  1.536144e-002  1.181102e-001
    endloop
  endfacet
  facet normal  0.000000e+000  0.000000e+000  1.000000e+000
    outer loop
      vertex  7.722718e-002  1.536144e-002  1.181102e-001
      vertex -7.274642e-002  3.013255e-002  1.181102e-001
      vertex -7.722718e-002  1.536144e-002  1.181102e-001
    endloop
  endfacet
  facet normal  -0.000000e+000  0.000000e+000  1.000000e+000
    outer loop
      vertex  7.722718e-002  1.536144e-002  1.181102e-001
      vertex -7.722718e-002  1.536144e-002  1.181102e-001
      vertex  7.874016e-002  0.000000e+000  1.181102e-001
    endloop
  endfacet
  facet normal  0.000000e+000  0.000000e+000  9.999999e-001
    outer loop
      vertex  7.874016e-002  0.000000e+000  1.181102e-001
      vertex -7.722718e-002  1.536144e-002  1.181102e-001
      vertex -7.874016e-002  9.642569e-018  1.181102e-001
    endloop
  endfacet
  facet normal  0.000000e+000  0.000000e+000  9.999999e-001
    outer loop
      vertex  7.874016e-002  0.000000e+000  1.181102e-001
      vertex -7.874016e-002  9.642569e-018  1.181102e-001
      vertex  7.722718e-002 -1.536144e-002  1.181102e-001
    endloop
  endfacet
  facet normal  0.000000e+000  0.000000e+000  1.000000e+000
    outer loop
      vertex  7.722718e-002 -1.536144e-002  1.181102e-001
      vertex -7.874016e-002  9.642569e-018  1.181102e-001
      vertex -7.722718e-002 -1.536144e-002  1.181102e-001
    endloop
  endfacet
  facet normal  -0.000000e+000  0.000000e+000  1.000000e+000
    outer loop
      vertex  7.722718e-002 -1.536144e-002  1.181102e-001
      vertex -7.722718e-002 -1.536144e-002  1.181102e-001
      vertex  7.274642e-002 -3.013255e-002  1.181102e-001
    endloop
  endfacet
  facet normal  0.000000e+000  0.000000e+000  1.000000e+000
    outer loop
      vertex  7.274642e-002 -3.013255e-002  1.181102e-001
      vertex -7.722718e-002 -1.536144e-002  1.181102e-001
      vertex -7.274642e-002 -3.013255e-002  1.181102e-001
    endloop
  endfacet
  facet normal  -0.000000e+000  0.000000e+000  1.000000e+000
    outer loop
      vertex  7.274642e-002 -3.013255e-002  1.181102e-001
      vertex -7.274642e-002 -3.013255e-002  1.181102e-001
      vertex  6.547005e-002 -4.374569e-002  1.181102e-001
    endloop
  endfacet
  facet normal  0.000000e+000  0.000000e+000  1.000000e+000
    outer loop
      vertex  6.547005e-002 -4.374569e-002  1.181102e-001
      vertex -7.274642e-002 -3.013255e-002  1.181102e-001
      vertex -6.547005e-002 -4.374569e-002  1.181102e-001
    endloop
  endfacet
  facet normal  -0.000000e+000  0.000000e+000  1.000000e+000
    outer loop
      vertex  6.547005e-002 -4.374569e-002  1.181102e-001
      vertex -6.547005e-002 -4.374569e-002  1.181102e-001
      vertex  5.567770e-002 -5.567770e-002  1.181102e-001
    endloop
  endfacet
  facet normal  0.000000e+000  0.000000e+000  1.000000e+000
    outer loop
      vertex  5.567770e-002 -5.567770e-002  1.181102e-001
      vertex -6.547005e-002 -4.374569e-002  1.181102e-001
      vertex -5.567770e-002 -5.567770e-002  1.181102e-001
    endloop
  endfacet
  facet normal  -0.000000e+000  0.000000e+000  1.000000e+000
    outer loop
      vertex  5.567770e-002 -5.567770e-002  1.181102e-001
      vertex -5.567770e-002 -5.567770e-002  1.181102e-001
      vertex  4.374569e-002 -6.547005e-002  1.181102e-001
    endloop
  endfacet
  facet normal  0.000000e+000  0.000000e+000  1.000000e+000
    outer loop
      vertex  4.374569e-002 -6.547005e-002  1.181102e-001
      vertex -5.567770e-002 -5.567770e-002  1.181102e-001
      vertex -4.374569e-002 -6.547005e-002  1.181102e-001
    endloop
  endfacet
  facet normal  -0.000000e+000  0.000000e+000  9.999999e-001
    outer loop
      vertex  4.374569e-002 -6.547005e-002  1.181102e-001
      vertex -4.374569e-002 -6.547005e-002  1.181102e-001
      vertex  3.013255e-002 -7.274642e-002  1.181102e-001
    endloop
  endfacet
  facet normal  0.000000e+000  0.000000e+000  1.000000e+000
    outer loop
      vertex  3.013255e-002 -7.274642e-002  1.181102e-001
      vertex -4.374569e-002 -6.547005e-002  1.181102e-001
      vertex -3.013255e-002 -7.274642e-002  1.181102e-001
    endloop
  endfacet
  facet normal  -0.000000e+000  0.000000e+000  1.000000e+000
    outer loop
      vertex  3.013255e-002 -7.274642e-002  1.181102e-001
      vertex -3.013255e-002 -7.274642e-002  1.181102e-001
      vertex  1.536144e-002 -7.722718e-002  1.181102e-001
    endloop
  endfacet
  facet normal  0.000000e+000  0.000000e+000  1.000000e+000
    outer loop
      vertex  1.536144e-002 -7.722718e-002  1.181102e-001
      vertex -3.013255e-002 -7.274642e-002  1.181102e-001
      vertex -1.536144e-002 -7.722718e-002  1.181102e-001
    endloop
  endfacet
  facet normal  -0.000000e+000  0.000000e+000  9.999999e-001
    outer loop
      vertex  1.536144e-002 -7.722718e-002  1.181102e-001
      vertex -1.536144e-002 -7.722718e-002  1.181102e-001
      vertex -1.446386e-017 -7.874016e-002  1.181102e-001
    endloop
  endfacet
  facet normal  0.000000e+000  0.000000e+000 -9.999999e-001
    outer loop
      vertex  4.821285e-018  7.874016e-002  0.000000e+000
      vertex  1.536144e-002  7.722718e-002  0.000000e+000
      vertex -1.536144e-002  7.722718e-002  0.000000e+000
    endloop
  endfacet
  facet normal  0.000000e+000  0.000000e+000 -9.999999e-001
    outer loop
      vertex -1.446386e-017 -7.874016e-002  0.000000e+000
      vertex -1.536144e-002 -7.722718e-002  0.000000e+000
      vertex  1.536144e-002 -7.722718e-002  0.000000e+000
    endloop
  endfacet
  facet normal  0.000000e+000  0.000000e+000 -1.000000e+000
    outer loop
      vertex  1.536144e-002 -7.722718e-002  0.000000e+000
      vertex -1.536144e-002 -7.722718e-002  0.000000e+000
      vertex -3.013255e-002 -7.274642e-002  0.000000e+000
    endloop
  endfacet
  facet normal  0.000000e+000  0.000000e+000 -1.000000e+000
    outer loop
      vertex  1.536144e-002 -7.722718e-002  0.000000e+000
      vertex -3.013255e-002 -7.274642e-002  0.000000e+000
      vertex  3.013255e-002 -7.274642e-002  0.000000e+000
    endloop
  endfacet
  facet normal  0.000000e+000  0.000000e+000 -1.000000e+000
    outer loop
      vertex  3.013255e-002 -7.274642e-002  0.000000e+000
      vertex -3.013255e-002 -7.274642e-002  0.000000e+000
      vertex -4.374569e-002 -6.547005e-002  0.000000e+000
    endloop
  endfacet
  facet normal  0.000000e+000  0.000000e+000 -9.999999e-001
    outer loop
      vertex  3.013255e-002 -7.274642e-002  0.000000e+000
      vertex -4.374569e-002 -6.547005e-002  0.000000e+000
      vertex  4.374569e-002 -6.547005e-002  0.000000e+000
    endloop
  endfacet
  facet normal  0.000000e+000  0.000000e+000 -1.000000e+000
    outer loop
      vertex  4.374569e-002 -6.547005e-002  0.000000e+000
      vertex -4.374569e-002 -6.547005e-002  0.000000e+000
      vertex -5.567770e-002 -5.567770e-002  0.000000e+000
    endloop
  endfacet
  facet normal  0.000000e+000  0.000000e+000 -1.000000e+000
    outer loop
      vertex  4.374569e-002 -6.547005e-002  0.000000e+000
      vertex -5.567770e-002 -5.567770e-002  0.000000e+000
      vertex  5.567770e-002 -5.567770e-002  0.000000e+000
    endloop
  endfacet
  facet normal  0.000000e+000  0.000000e+000 -1.000000e+000
    outer loop
      vertex  5.567770e-002 -5.567770e-002  0.000000e+000
      vertex -5.567770e-002 -5.567770e-002  0.000000e+000
      vertex -6.547005e-002 -4.374569e-002  0.000000e+000
    endloop
  endfacet
  facet normal  0.000000e+000  0.000000e+000 -1.000000e+000
    outer loop
      vertex  5.567770e-002 -5.567770e-002  0.000000e+000
      vertex -6.547005e-002 -4.374569e-002  0.000000e+000
      vertex  6.547005e-002 -4.374569e-002  0.000000e+000
    endloop
  endfacet
  facet normal  0.000000e+000  0.000000e+000 -1.000000e+000
    outer loop
      vertex  6.547005e-002 -4.374569e-002  0.000000e+000
      vertex -6.547005e-002 -4.374569e-002  0.000000e+000
      vertex -7.274642e-002 -3.013255e-002  0.000000e+000
    endloop
  endfacet
  facet normal  0.000000e+000  0.000000e+000 -1.000000e+000
    outer loop
      vertex  6.547005e-002 -4.374569e-002  0.000000e+000
      vertex -7.274642e-002 -3.013255e-002  0.000000e+000
      vertex  7.274642e-002 -3.013255e-002  0.000000e+000
    endloop
  endfacet
  facet normal  0.000000e+000  0.000000e+000 -1.000000e+000
    outer loop
      vertex  7.274642e-002 -3.013255e-002  0.000000e+000
      vertex -7.274642e-002 -3.013255e-002  0.000000e+000
      vertex -7.722718e-002 -1.536144e-002  0.000000e+000
    endloop
  endfacet
  facet normal  0.000000e+000  0.000000e+000 -1.000000e+000
    outer loop
      vertex  7.274642e-002 -3.013255e-002  0.000000e+000
      vertex -7.722718e-002 -1.536144e-002  0.000000e+000
      vertex  7.722718e-002 -1.536144e-002  0.000000e+000
    endloop
  endfacet
  facet normal  0.000000e+000  0.000000e+000 -1.000000e+000
    outer loop
      vertex  7.722718e-002 -1.536144e-002  0.000000e+000
      vertex -7.722718e-002 -1.536144e-002  0.000000e+000
      vertex -7.874016e-002  9.642569e-018  0.000000e+000
    endloop
  endfacet
  facet normal  0.000000e+000  0.000000e+000 -9.999999e-001
    outer loop
      vertex  7.722718e-002 -1.536144e-002  0.000000e+000
      vertex -7.874016e-002  9.642569e-018  0.000000e+000
      vertex  7.874016e-002  0.000000e+000  0.000000e+000
    endloop
  endfacet
  facet normal  0.000000e+000  0.000000e+000 -9.999999e-001
    outer loop
      vertex  7.874016e-002  0.000000e+000  0.000000e+000
      vertex -7.874016e-002  9.642569e-018  0.000000e+000
      vertex -7.722718e-002  1.536144e-002  0.000000e+000
    endloop
  endfacet
  facet normal  0.000000e+000  0.000000e+000 -1.000000e+000
    outer loop
      vertex  7.874016e-002  0.000000e+000  0.000000e+000
      vertex -7.722718e-002  1.536144e-002  0.000000e+000
      vertex  7.722718e-002  1.536144e-002  0.000000e+000
    endloop
  endfacet
  facet normal  0.000000e+000  0.000000e+000 -1.000000e+000
    outer loop
      vertex  7.722718e-002  1.536144e-002  0.000000e+000
      vertex -7.722718e-002  1.536144e-002  0.000000e+000
      vertex -7.274642e-002  3.013255e-002  0.000000e+000
    endloop
  endfacet
  facet normal  0.000000e+000  0.000000e+000 -1.000000e+000
    outer loop
      vertex  7.722718e-002  1.536144e-002  0.000000e+000
      vertex -7.274642e-002  3.013255e-002  0.000000e+000
      vertex  7.274642e-002  3.013255e-002  0.000000e+000
    endloop
  endfacet
  facet normal  0.000000e+000  0.000000e+000 -1.000000e+000
    outer loop
      vertex  7.274642e-002  3.013255e-002  0.000000e+000
      vertex -7.274642e-002  3.013255e-002  0.000000e+000
      vertex -6.547005e-002  4.374569e-002  0.000000e+000
    endloop
  endfacet
  facet normal  0.000000e+000  0.000000e+000 -1.000000e+000
    outer loop
      vertex  7.274642e-002  3.013255e-002  0.000000e+000
      vertex -6.547005e-002  4.374569e-002  0.000000e+000
      vertex  6.547005e-002  4.374569e-002  0.000000e+000
    endloop
  endfacet
  facet normal  0.000000e+000  0.000000e+000 -1.000000e+000
    outer loop
      vertex  6.547005e-002  4.374569e-002  0.000000e+000
      vertex -6.547005e-002  4.374569e-002  0.000000e+000
      vertex -5.567770e-002  5.567770e-002  0.000000e+000
    endloop
  endfacet
  facet normal  0.000000e+000  0.000000e+000 -1.000000e+000
    outer loop
      vertex  6.547005e-002  4.374569e-002  0.000000e+000
      vertex -5.567770e-002  5.567770e-002  0.000000e+000
      vertex  5.567770e-002  5.567770e-002  0.000000e+000
    endloop
  endfacet
  facet normal  0.000000e+000  0.000000e+000 -1.000000e+000
    outer loop
      vertex  5.567770e-002  5.567770e-002  0.000000e+000
      vertex -5.567770e-002  5.567770e-002  0.000000e+000
      vertex -4.374569e-002  6.547005e-002  0.000000e+000
    endloop
  endfacet
  facet normal  0.000000e+000  0.000000e+000 -1.000000e+000
    outer loop
      vertex  5.567770e-002  5.567770e-002  0.000000e+000
      vertex -4.374569e-002  6.547005e-002  0.000000e+000
      vertex  4.374569e-002  6.547005e-002  0.000000e+000
    endloop
  endfacet
  facet normal  0.000000e+000  0.000000e+000 -9.999999e-001
    outer loop
      vertex  4.374569e-002  6.547005e-002  0.000000e+000
      vertex -4.374569e-002  6.547005e-002  0.000000e+000
      vertex -3.013255e-002  7.274642e-002  0.000000e+000
    endloop
  endfacet
  facet normal  0.000000e+000  0.000000e+000 -1.000000e+000
    outer loop
      vertex  4.374569e-002  6.547005e-002  0.000000e+000
      vertex -3.013255e-002  7.274642e-002  0.000000e+000
      vertex  3.013255e-002  7.274642e-002  0.000000e+000
    endloop
  endfacet
  facet normal  0.000000e+000  0.000000e+000 -1.000000e+000
    outer loop
      vertex  3.013255e-002  7.274642e-002  0.000000e+000
      vertex -3.013255e-002  7.274642e-002  0.000000e+000
      vertex -1.536144e-002  7.722718e-002  0.000000e+000
    endloop
  endfacet
  facet normal  0.000000e+000  0.000000e+000 -1.000000e+000
    outer loop
      vertex  3.013255e-002  7.274642e-002  0.000000e+000
      vertex -1.536144e-002  7.722718e-002  0.000000e+000
      vertex  1.536144e-002  7.722718e-002  0.000000e+000
    endloop
  endfacet
  facet normal  9.951848e-001 -9.801729e-002  0.000000e+000
    outer loop
      vertex  7.874016e-002  0.000000e+000  0.000000e+000
      vertex  7.874016e-002  0.000000e+000  1.181102e-001
      vertex  7.722718e-002 -1.536144e-002  0.000000e+000
    endloop
  endfacet
  facet normal  9.951848e-001 -9.801729e-002  0.000000e+000
    outer loop
      vertex  7.722718e-002 -1.536144e-002  0.000000e+000
      vertex  7.874016e-002  0.000000e+000  1.181102e-001
      vertex  7.722718e-002 -1.536144e-002  1.181102e-001
    endloop
  endfacet
  facet normal  9.569404e-001 -2.902847e-001  0.000000e+000
    outer loop
      vertex  7.722718e-002 -1.536144e-002  0.000000e+000
      vertex  7.722718e-002 -1.536144e-002  1.181102e-001
      vertex  7.274642e-002 -3.013255e-002  0.000000e+000
    endloop
  endfacet
  facet normal  9.569404e-001 -2.902847e-001  0.000000e+000
    outer loop
      vertex  7.274642e-002 -3.013255e-002  0.000000e+000
      vertex  7.722718e-002 -1.536144e-002  1.181102e-001
      vertex  7.274642e-002 -3.013255e-002  1.181102e-001
    endloop
  endfacet
  facet normal  8.819214e-001 -4.713967e-001  0.000000e+000
    outer loop
      vertex  7.274642e-002 -3.013255e-002  0.000000e+000
      vertex  7.274642e-002 -3.013255e-002  1.181102e-001
      vertex  6.547005e-002 -4.374569e-002  0.000000e+000
    endloop
  endfacet
  facet normal  8.819214e-001 -4.713967e-001  0.000000e+000
    outer loop
      vertex  6.547005e-002 -4.374569e-002  0.000000e+000
      vertex  7.274642e-002 -3.013255e-002  1.181102e-001
      vertex  6.547005e-002 -4.374569e-002  1.181102e-001
    endloop
  endfacet
  facet normal  7.730104e-001 -6.343933e-001  0.000000e+000
    outer loop
      vertex  6.547005e-002 -4.374569e-002  0.000000e+000
      vertex  6.547005e-002 -4.374569e-002  1.181102e-001
      vertex  5.567770e-002 -5.567770e-002  0.000000e+000
    endloop
  endfacet
  facet normal  7.730104e-001 -6.343933e-001  0.000000e+000
    outer loop
      vertex  5.567770e-002 -5.567770e-002  0.000000e+000
      vertex  6.547005e-002 -4.374569e-002  1.181102e-001
      vertex  5.567770e-002 -5.567770e-002  1.181102e-001
    endloop
  endfacet
  facet normal  6.343933e-001 -7.730104e-001  0.000000e+000
    outer loop
      vertex  5.567770e-002 -5.567770e-002  0.000000e+000
      vertex  5.567770e-002 -5.567770e-002  1.181102e-001
      vertex  4.374569e-002 -6.547005e-002  0.000000e+000
    endloop
  endfacet
  facet normal  6.343933e-001 -7.730104e-001  0.000000e+000
    outer loop
      vertex  4.374569e-002 -6.547005e-002  0.000000e+000
      vertex  5.567770e-002 -5.567770e-002  1.181102e-001
      vertex  4.374569e-002 -6.547005e-002  1.181102e-001
    endloop
  endfacet
  facet normal  4.713967e-001 -8.819214e-001  0.000000e+000
    outer loop
      vertex  4.374569e-002 -6.547005e-002  0.000000e+000
      vertex  4.374569e-002 -6.547005e-002  1.181102e-001
      vertex  3.013255e-002 -7.274642e-002  0.000000e+000
    endloop
  endfacet
  facet normal  4.713967e-001 -8.819214e-001  0.000000e+000
    outer loop
      vertex  3.013255e-002 -7.274642e-002  0.000000e+000
      vertex  4.374569e-002 -6.547005e-002  1.181102e-001
      vertex  3.013255e-002 -7.274642e-002  1.181102e-001
    endloop
  endfacet
  facet normal  2.902847e-001 -9.569404e-001  0.000000e+000
    outer loop
      vertex  3.013255e-002 -7.274642e-002  0.000000e+000
      vertex  3.013255e-002 -7.274642e-002  1.181102e-001
      vertex  1.536144e-002 -7.722718e-002  0.000000e+000
    endloop
  endfacet
  facet normal  2.902847e-001 -9.569404e-001  0.000000e+000
    outer loop
      vertex  1.536144e-002 -7.722718e-002  0.000000e+000
      vertex  3.013255e-002 -7.274642e-002  1.181102e-001
      vertex  1.536144e-002 -7.722718e-002  1.181102e-001
    endloop
  endfacet
  facet normal  9.801729e-002 -9.951848e-001  0.000000e+000
    outer loop
      vertex  1.536144e-002 -7.722718e-002  0.000000e+000
      vertex  1.536144e-002 -7.722718e-002  1.181102e-001
      vertex -1.446386e-017 -7.874016e-002  0.000000e+000
    endloop
  endfacet
  facet normal  9.801729e-002 -9.951848e-001  0.000000e+000
    outer loop
      vertex -1.446386e-017 -7.874016e-002  0.000000e+000
      vertex  1.536144e-002 -7.722718e-002  1.181102e-001
      vertex -1.446386e-017 -7.874016e-002  1.181102e-001
    endloop
  endfacet
  facet normal -9.801729e-002 -9.951848e-001  -0.000000e+000
    outer loop
      vertex -1.446386e-017 -7.874016e-002  0.000000e+000
      vertex -1.446386e-017 -7.874016e-002  1.181102e-001
      vertex -1.536144e-002 -7.722718e-002  0.000000e+000
    endloop
  endfacet
  facet normal -9.801729e-002 -9.951848e-001  0.000000e+000
    outer loop
      vertex -1.536144e-002 -7.722718e-002  0.000000e+000
      vertex -1.446386e-017 -7.874016e-002  1.181102e-001
      vertex -1.536144e-002 -7.722718e-002  1.181102e-001
    endloop
  endfacet
  facet normal -2.902847e-001 -9.569404e-001  -0.000000e+000
    outer loop
      vertex -1.536144e-002 -7.722718e-002  0.000000e+000
      vertex -1.536144e-002 -7.722718e-002  1.181102e-001
      vertex -3.013255e-002 -7.274642e-002  0.000000e+000
    endloop
  endfacet
  facet normal -2.902847e-001 -9.569404e-001  0.000000e+000
    outer loop
      vertex -3.013255e-002 -7.274642e-002  0.000000e+000
      vertex -1.536144e-002 -7.722718e-002  1.181102e-001
      vertex -3.013255e-002 -7.274642e-002  1.181102e-001
    endloop
  endfacet
  facet normal -4.713967e-001 -8.819214e-001  -0.000000e+000
    outer loop
      vertex -3.013255e-002 -7.274642e-002  0.000000e+000
      vertex -3.013255e-002 -7.274642e-002  1.181102e-001
      vertex -4.374569e-002 -6.547005e-002  0.000000e+000
    endloop
  endfacet
  facet normal -4.713967e-001 -8.819214e-001  0.000000e+000
    outer loop
      vertex -4.374569e-002 -6.547005e-002  0.000000e+000
      vertex -3.013255e-002 -7.274642e-002  1.181102e-001
      vertex -4.374569e-002 -6.547005e-002  1.181102e-001
    endloop
  endfacet
  facet normal -6.343933e-001 -7.730104e-001  -0.000000e+000
    outer loop
      vertex -4.374569e-002 -6.547005e-002  0.000000e+000
      vertex -4.374569e-002 -6.547005e-002  1.181102e-001
      vertex -5.567770e-002 -5.567770e-002  0.000000e+000
    endloop
  endfacet
  facet normal -6.343933e-001 -7.730104e-001  0.000000e+000
    outer loop
      vertex -5.567770e-002 -5.567770e-002  0.000000e+000
      vertex -4.374569e-002 -6.547005e-002  1.181102e-001
      vertex -5.567770e-002 -5.567770e-002  1.181102e-001
    endloop
  endfacet
  facet normal -7.730104e-001 -6.343933e-001  -0.000000e+000
    outer loop
      vertex -5.567770e-002 -5.567770e-002  0.000000e+000
      vertex -5.567770e-002 -5.567770e-002  1.181102e-001
      vertex -6.547005e-002 -4.374569e-002  0.000000e+000
    endloop
  endfacet
  facet normal -7.730104e-001 -6.343933e-001  0.000000e+000
    outer loop
      vertex -6.547005e-002 -4.374569e-002  0.000000e+000
      vertex -5.567770e-002 -5.567770e-002  1.181102e-001
      vertex -6.547005e-002 -4.374569e-002  1.181102e-001
    endloop
  endfacet
  facet normal -8.819214e-001 -4.713967e-001  -0.000000e+000
    outer loop
      vertex -6.547005e-002 -4.374569e-002  0.000000e+000
      vertex -6.547005e-002 -4.374569e-002  1.181102e-001
      vertex -7.274642e-002 -3.013255e-002  0.000000e+000
    endloop
  endfacet
  facet normal -8.819214e-001 -4.713967e-001  0.000000e+000
    outer loop
      vertex -7.274642e-002 -3.013255e-002  0.000000e+000
      vertex -6.547005e-002 -4.374569e-002  1.181102e-001
      vertex -7.274642e-002 -3.013255e-002  1.181102e-001
    endloop
  endfacet
  facet normal -9.569404e-001 -2.902847e-001  -0.000000e+000
    outer loop
      vertex -7.274642e-002 -3.013255e-002  0.000000e+000
      vertex -7.274642e-002 -3.013255e-002  1.181102e-001
      vertex -7.722718e-002 -1.536144e-002  0.000000e+000
    endloop
  endfacet
  facet normal -9.569404e-001 -2.902847e-001  0.000000e+000
    outer loop
      vertex -7.722718e-002 -1.536144e-002  0.000000e+000
      vertex -7.274642e-002 -3.013255e-002  1.181102e-001
      vertex -7.722718e-002 -1.536144e-002  1.181102e-001
    endloop
  endfacet
  facet normal -9.951848e-001 -9.801729e-002  -0.000000e+000
    outer loop
      vertex -7.722718e-002 -1.536144e-002  0.000000e+000
      vertex -7.722718e-002 -1.536144e-002  1.181102e-001
      vertex -7.874016e-002  9.642569e-018  0.000000e+000
    endloop
  endfacet
  facet normal -9.951848e-001 -9.801729e-002  0.000000e+000
    outer loop
      vertex -7.874016e-002  9.642569e-018  0.000000e+000
      vertex -7.722718e-002 -1.536144e-002  1.181102e-001
      vertex -7.874016e-002  9.642569e-018  1.181102e-001
    endloop
  endfacet
  facet normal -9.951848e-001  9.801729e-002  0.000000e+000
    outer loop
      vertex -7.874016e-002  9.642569e-018  0.000000e+000
      vertex -7.874016e-002  9.642569e-018  1.181102e-001
      vertex -7.722718e-002  1.536144e-002  0.000000e+000
    endloop
  endfacet
  facet normal -9.951848e-001  9.801729e-002  0.000000e+000
    outer loop
      vertex -7.722718e-002  1.536144e-002  0.000000e+000
      vertex -7.874016e-002  9.642569e-018  1.181102e-001
      vertex -7.722718e-002  1.536144e-002  1.181102e-001
    endloop
  endfacet
  facet normal -9.569404e-001  2.902847e-001  0.000000e+000
    outer loop
      vertex -7.722718e-002  1.536144e-002  0.000000e+000
      vertex -7.722718e-002  1.536144e-002  1.181102e-001
      vertex -7.274642e-002  3.013255e-002  0.000000e+000
    endloop
  endfacet
  facet normal -9.569404e-001  2.902847e-001  0.000000e+000
    outer loop
      vertex -7.274642e-002  3.013255e-002  0.000000e+000
      vertex -7.722718e-002  1.536144e-002  1.181102e-001
      vertex -7.274642e-002  3.013255e-002  1.181102e-001
    endloop
  endfacet
  facet normal -8.819214e-001  4.713967e-001  0.000000e+000
    outer loop
      vertex -7.274642e-002  3.013255e-002  0.000000e+000
      vertex -7.274642e-002  3.013255e-002  1.181102e-001
      vertex -6.547005e-002  4.374569e-002  0.000000e+000
    endloop
  endfacet
  facet normal -8.819214e-001  4.713967e-001  0.000000e+000
    outer loop
      vertex -6.547005e-002  4.374569e-002  0.000000e+000
      vertex -7.274642e-002  3.013255e-002  1.181102e-001
      vertex -6.547005e-002  4.374569e-002  1.181102e-001
    endloop
  endfacet
  facet normal -7.730104e-001  6.343933e-001  0.000000e+000
    outer loop
      vertex -6.547005e-002  4.374569e-002  0.000000e+000
      vertex -6.547005e-002  4.374569e-002  1.181102e-001
      vertex -5.567770e-002  5.567770e-002  0.000000e+000
    endloop
  endfacet
  facet normal -7.730104e-001  6.343933e-001  0.000000e+000
    outer loop
      vertex -5.567770e-002  5.567770e-002  0.000000e+000
      vertex -6.547005e-002  4.374569e-002  1.181102e-001
      vertex -5.567770e-002  5.567770e-002  1.181102e-001
    endloop
  endfacet
  facet normal -6.343933e-001  7.730104e-001  0.000000e+000
    outer loop
      vertex -5.567770e-002  5.567770e-002  0.000000e+000
      vertex -5.567770e-002  5.567770e-002  1.181102e-001
      vertex -4.374569e-002  6.547005e-002  0.000000e+000
    endloop
  endfacet
  facet normal -6.343933e-001  7.730104e-001  0.000000e+000
    outer loop
      vertex -4.374569e-002  6.547005e-002  0.000000e+000
      vertex -5.567770e-002  5.567770e-002  1.181102e-001
      vertex -4.374569e-002  6.547005e-002  1.181102e-001
    endloop
  endfacet
  facet normal -4.713967e-001  8.819214e-001  0.000000e+000
    outer loop
      vertex -4.374569e-002  6.547005e-002  0.000000e+000
      vertex -4.374569e-002  6.547005e-002  1.181102e-001
      vertex -3.013255e-002  7.274642e-002  0.000000e+000
    endloop
  endfacet
  facet normal -4.713967e-001  8.819214e-001  0.000000e+000
    outer loop
      vertex -3.013255e-002  7.274642e-002  0.000000e+000
      vertex -4.374569e-002  6.547005e-002  1.181102e-001
      vertex -3.013255e-002  7.274642e-002  1.181102e-001
    endloop
  endfacet
  facet normal -2.902847e-001  9.569404e-001  0.000000e+000
    outer loop
      vertex -3.013255e-002  7.274642e-002  0.000000e+000
      vertex -3.013255e-002  7.274642e-002  1.181102e-001
      vertex -1.536144e-002  7.722718e-002  0.000000e+000
    endloop
  endfacet
  facet normal -2.902847e-001  9.569404e-001  0.000000e+000
    outer loop
      vertex -1.536144e-002  7.722718e-002  0.000000e+000
      vertex -3.013255e-002  7.274642e-002  1.181102e-001
      vertex -1.536144e-002  7.722718e-002  1.181102e-001
    endloop
  endfacet
  facet normal -9.801729e-002  9.951848e-001  0.000000e+000
    outer loop
      vertex -1.536144e-002  7.722718e-002  0.000000e+000
      vertex -1.536144e-002  7.722718e-002  1.181102e-001
      vertex  4.821285e-018  7.874016e-002  0.000000e+000
    endloop
  endfacet
  facet normal -9.801729e-002  9.951848e-001  0.000000e+000
    outer loop
      vertex  4.821285e-018  7.874016e-002  0.000000e+000
      vertex -1.536144e-002  7.722718e-002  1.181102e-001
      vertex  4.821285e-018  7.874016e-002  1.181102e-001
    endloop
  endfacet
  facet normal  9.801729e-002  9.951848e-001  0.000000e+000
    outer loop
      vertex  4.821285e-018  7.874016e-002  0.000000e+000
      vertex  4.821285e-018  7.874016e-002  1.181102e-001
      vertex  1.536144e-002  7.722718e-002  0.000000e+000
    endloop
  endfacet
  facet normal  9.801729e-002  9.951848e-001  -0.000000e+000
    outer loop
      vertex  1.536144e-002  7.722718e-002  0.000000e+000
      vertex  4.821285e-018  7.874016e-002  1.181102e-001
      vertex  1.536144e-002  7.722718e-002  1.181102e-001
    endloop
  endfacet
  facet normal  2.902847e-001  9.569404e-001  0.000000e+000
    outer loop
      vertex  1.536144e-002  7.722718e-002  0.000000e+000
      vertex  1.536144e-002  7.722718e-002  1.181102e-001
      vertex  3.013255e-002  7.274642e-002  0.000000e+000
    endloop
  endfacet
  facet normal  2.902847e-001  9.569404e-001  -0.000000e+000
    outer loop
      vertex  3.013255e-002  7.274642e-002  0.000000e+000
      vertex  1.536144e-002  7.722718e-002  1.181102e-001
      vertex  3.013255e-002  7.274642e-002  1.181102e-001
    endloop
  endfacet
  facet normal  4.713967e-001  8.819214e-001  0.000000e+000
    outer loop
      vertex  3.013255e-002  7.274642e-002  0.000000e+000
      vertex  3.013255e-002  7.274642e-002  1.181102e-001
      vertex  4.374569e-002  6.547005e-002  0.000000e+000
    endloop
  endfacet
  facet normal  4.713967e-001  8.819214e-001  -0.000000e+000
    outer loop
      vertex  4.374569e-002  6.547005e-002  0.000000e+000
      vertex  3.013255e-002  7.274642e-002  1.181102e-001
      vertex  4.374569e-002  6.547005e-002  1.181102e-001
    endloop
  endfacet
  facet normal  6.343933e-001  7.730104e-001  0.000000e+000
    outer loop
      vertex  4.374569e-002  6.547005e-002  0.000000e+000
      vertex  4.374569e-002  6.547005e-002  1.181102e-001
      vertex  5.567770e-002  5.567770e-002  0.000000e+000
    endloop
  endfacet
  facet normal  6.343933e-001  7.730104e-001  -0.000000e+000
    outer loop
      vertex  5.567770e-002  5.567770e-002  0.000000e+000
      vertex  4.374569e-002  6.547005e-002  1.181102e-001
      vertex  5.567770e-002  5.567770e-002  1.181102e-001
    endloop
  endfacet
  facet normal  7.730104e-001  6.343933e-001  0.000000e+000
    outer loop
      vertex  5.567770e-002  5.567770e-002  0.000000e+000
      vertex  5.567770e-002  5.567770e-002  1.181102e-001
      vertex  6.547005e-002  4.374569e-002  0.000000e+000
    endloop
  endfacet
  facet normal  7.730104e-001  6.343933e-001  -0.000000e+000
    outer loop
      vertex  6.547005e-002  4.374569e-002  0.000000e+000
      vertex  5.567770e-002  5.567770e-002  1.181102e-001
      vertex  6.547005e-002  4.374569e-002  1.181102e-001
    endloop
  endfacet
  facet normal  8.819214e-001  4.713967e-001  0.000000e+000
    outer loop
      vertex  6.547005e-002  4.374569e-002  0.000000e+000
      vertex  6.547005e-002  4.374569e-002  1.181102e-001
      vertex  7.274642e-002  3.013255e-002  0.000000e+000
    endloop
  endfacet
  facet normal  8.819214e-001  4.713967e-001  -0.000000e+000
    outer loop
      vertex  7.274642e-002  3.013255e-002  0.000000e+000
      vertex  6.547005e-002  4.374569e-002  1.181102e-001
      vertex  7.274642e-002  3.013255e-002  1.181102e-001
    endloop
  endfacet
  facet normal  9.569404e-001  2.902847e-001  0.000000e+000
    outer loop
      vertex  7.274642e-002  3.013255e-002  0.000000e+000
      vertex  7.274642e-002  3.013255e-002  1.181102e-001
      vertex  7.722718e-002  1.536144e-002  0.000000e+000
    endloop
  endfacet
  facet normal  9.569404e-001  2.902847e-001  -0.000000e+000
    outer loop
      vertex  7.722718e-002  1.536144e-002  0.000000e+000
      vertex  7.274642e-002  3.013255e-002  1.181102e-001
      vertex  7.722718e-002  1.536144e-002  1.181102e-001
    endloop
  endfacet
  facet normal  9.951848e-001  9.801729e-002  0.000000e+000
    outer loop
      vertex  7.722718e-002  1.536144e-002  0.000000e+000
      vertex  7.722718e-002  1.536144e-002  1.181102e-001
      vertex  7.874016e-002  0.000000e+000  0.000000e+000
    endloop
  endfacet
  facet normal  9.951848e-001  9.801729e-002  -0.000000e+000
    outer loop
      vertex  7.874016e-002  0.000000e+000  0.000000e+000
      vertex  7.722718e-002  1.536144e-002  1.181102e-001
      vertex  7.874016e-002  0.000000e+000  1.181102e-001
    endloop
  endfacet
endsolid CATIA STL
