solid CATIA STL
  facet normal  0.000000e+000  0.000000e+000  1.000000e+000
    outer loop
      vertex -3.897638e-001  0.000000e+000  3.937008e-001
      vertex -1.968504e-001  0.000000e+000  3.937008e-001
      vertex -3.897638e-001  5.905512e-001  3.937008e-001
    endloop
  endfacet
  facet normal  0.000000e+000  0.000000e+000  1.000000e+000
    outer loop
      vertex -3.897638e-001  5.905512e-001  3.937008e-001
      vertex -1.968504e-001  0.000000e+000  3.937008e-001
      vertex -1.968504e-001  1.968504e-001  3.937008e-001
    endloop
  endfacet
  facet normal  0.000000e+000  -0.000000e+000  1.000000e+000
    outer loop
      vertex -3.897638e-001  5.905512e-001  3.937008e-001
      vertex -1.968504e-001  1.968504e-001  3.937008e-001
      vertex  1.574803e-001  5.905512e-001  3.937008e-001
    endloop
  endfacet
  facet normal  0.000000e+000  0.000000e+000  1.000000e+000
    outer loop
      vertex  1.574803e-001  5.905512e-001  3.937008e-001
      vertex -1.968504e-001  1.968504e-001  3.937008e-001
      vertex  1.574803e-001  1.968504e-001  3.937008e-001
    endloop
  endfacet
  facet normal  0.000000e+000  0.000000e+000 -1.000000e+000
    outer loop
      vertex -3.897638e-001  0.000000e+000  0.000000e+000
      vertex -3.897638e-001  5.905512e-001  0.000000e+000
      vertex -1.968504e-001  0.000000e+000  0.000000e+000
    endloop
  endfacet
  facet normal  0.000000e+000  0.000000e+000 -1.000000e+000
    outer loop
      vertex -1.968504e-001  0.000000e+000  0.000000e+000
      vertex -3.897638e-001  5.905512e-001  0.000000e+000
      vertex -1.968504e-001  1.968504e-001  0.000000e+000
    endloop
  endfacet
  facet normal  -0.000000e+000  0.000000e+000 -1.000000e+000
    outer loop
      vertex -3.897638e-001  5.905512e-001  0.000000e+000
      vertex  1.574803e-001  5.905512e-001  0.000000e+000
      vertex -1.968504e-001  1.968504e-001  0.000000e+000
    endloop
  endfacet
  facet normal  0.000000e+000  0.000000e+000 -1.000000e+000
    outer loop
      vertex -1.968504e-001  1.968504e-001  0.000000e+000
      vertex  1.574803e-001  5.905512e-001  0.000000e+000
      vertex  1.574803e-001  1.968504e-001  0.000000e+000
    endloop
  endfacet
  facet normal  0.000000e+000 -1.000000e+000  -0.000000e+000
    outer loop
      vertex -1.968504e-001  0.000000e+000  0.000000e+000
      vertex -1.968504e-001  0.000000e+000  3.937008e-001
      vertex -3.897638e-001  0.000000e+000  0.000000e+000
    endloop
  endfacet
  facet normal  0.000000e+000 -1.000000e+000  0.000000e+000
    outer loop
      vertex -3.897638e-001  0.000000e+000  0.000000e+000
      vertex -1.968504e-001  0.000000e+000  3.937008e-001
      vertex -3.897638e-001  0.000000e+000  3.937008e-001
    endloop
  endfacet
  facet normal -1.000000e+000  -0.000000e+000  0.000000e+000
    outer loop
      vertex -3.897638e-001  0.000000e+000  3.937008e-001
      vertex -3.897638e-001  5.905512e-001  3.937008e-001
      vertex -3.897638e-001  0.000000e+000  0.000000e+000
    endloop
  endfacet
  facet normal -1.000000e+000  0.000000e+000  0.000000e+000
    outer loop
      vertex -3.897638e-001  0.000000e+000  0.000000e+000
      vertex -3.897638e-001  5.905512e-001  3.937008e-001
      vertex -3.897638e-001  5.905512e-001  0.000000e+000
    endloop
  endfacet
  facet normal  0.000000e+000  1.000000e+000  0.000000e+000
    outer loop
      vertex -3.897638e-001  5.905512e-001  3.937008e-001
      vertex  1.574803e-001  5.905512e-001  3.937008e-001
      vertex -3.897638e-001  5.905512e-001  0.000000e+000
    endloop
  endfacet
  facet normal  0.000000e+000  1.000000e+000  0.000000e+000
    outer loop
      vertex -3.897638e-001  5.905512e-001  0.000000e+000
      vertex  1.574803e-001  5.905512e-001  3.937008e-001
      vertex  1.574803e-001  5.905512e-001  0.000000e+000
    endloop
  endfacet
  facet normal  1.000000e+000  0.000000e+000  0.000000e+000
    outer loop
      vertex  1.574803e-001  5.905512e-001  0.000000e+000
      vertex  1.574803e-001  5.905512e-001  3.937008e-001
      vertex  1.574803e-001  1.968504e-001  0.000000e+000
    endloop
  endfacet
  facet normal  1.000000e+000  0.000000e+000  0.000000e+000
    outer loop
      vertex  1.574803e-001  1.968504e-001  0.000000e+000
      vertex  1.574803e-001  5.905512e-001  3.937008e-001
      vertex  1.574803e-001  1.968504e-001  3.937008e-001
    endloop
  endfacet
  facet normal  0.000000e+000 -1.000000e+000  -0.000000e+000
    outer loop
      vertex  1.574803e-001  1.968504e-001  0.000000e+000
      vertex  1.574803e-001  1.968504e-001  3.937008e-001
      vertex -1.968504e-001  1.968504e-001  0.000000e+000
    endloop
  endfacet
  facet normal  0.000000e+000 -1.000000e+000  0.000000e+000
    outer loop
      vertex -1.968504e-001  1.968504e-001  0.000000e+000
      vertex  1.574803e-001  1.968504e-001  3.937008e-001
      vertex -1.968504e-001  1.968504e-001  3.937008e-001
    endloop
  endfacet
  facet normal  1.000000e+000  0.000000e+000  0.000000e+000
    outer loop
      vertex -1.968504e-001  1.968504e-001  0.000000e+000
      vertex -1.968504e-001  1.968504e-001  3.937008e-001
      vertex -1.968504e-001  0.000000e+000  0.000000e+000
    endloop
  endfacet
  facet normal  1.000000e+000  0.000000e+000  0.000000e+000
    outer loop
      vertex -1.968504e-001  0.000000e+000  0.000000e+000
      vertex -1.968504e-001  1.968504e-001  3.937008e-001
      vertex -1.968504e-001  0.000000e+000  3.937008e-001
    endloop
  endfacet
endsolid CATIA STL
