solid CATIA STL
  facet normal  1.000000e+000  0.000000e+000  0.000000e+000
    outer loop
      vertex  1.653543e+000  0.000000e+000  0.000000e+000
      vertex  1.653543e+000  1.181102e+000  0.000000e+000
      vertex  1.653543e+000  0.000000e+000  3.937008e-001
    endloop
  endfacet
  facet normal  1.000000e+000  -0.000000e+000  0.000000e+000
    outer loop
      vertex  1.653543e+000  0.000000e+000  3.937008e-001
      vertex  1.653543e+000  1.181102e+000  0.000000e+000
      vertex  1.653543e+000  1.181102e+000  3.937008e-001
    endloop
  endfacet
  facet normal -1.000000e+000  0.000000e+000  0.000000e+000
    outer loop
      vertex  0.000000e+000  0.000000e+000  0.000000e+000
      vertex  0.000000e+000  0.000000e+000  3.937008e-001
      vertex  0.000000e+000  1.181102e+000  0.000000e+000
    endloop
  endfacet
  facet normal -1.000000e+000  0.000000e+000  0.000000e+000
    outer loop
      vertex  0.000000e+000  1.181102e+000  0.000000e+000
      vertex  0.000000e+000  0.000000e+000  3.937008e-001
      vertex  0.000000e+000  1.181102e+000  3.937008e-001
    endloop
  endfacet
  facet normal  0.000000e+000 -1.000000e+000  0.000000e+000
    outer loop
      vertex  0.000000e+000  0.000000e+000  3.937008e-001
      vertex  0.000000e+000  0.000000e+000  0.000000e+000
      vertex  1.653543e+000  0.000000e+000  3.937008e-001
    endloop
  endfacet
  facet normal  0.000000e+000 -1.000000e+000  -0.000000e+000
    outer loop
      vertex  1.653543e+000  0.000000e+000  3.937008e-001
      vertex  0.000000e+000  0.000000e+000  0.000000e+000
      vertex  1.653543e+000  0.000000e+000  0.000000e+000
    endloop
  endfacet
  facet normal  0.000000e+000  0.000000e+000  1.000000e+000
    outer loop
      vertex  0.000000e+000  1.181102e+000  3.937008e-001
      vertex  0.000000e+000  0.000000e+000  3.937008e-001
      vertex  1.653543e+000  1.181102e+000  3.937008e-001
    endloop
  endfacet
  facet normal  0.000000e+000  0.000000e+000  1.000000e+000
    outer loop
      vertex  1.653543e+000  1.181102e+000  3.937008e-001
      vertex  0.000000e+000  0.000000e+000  3.937008e-001
      vertex  1.653543e+000  0.000000e+000  3.937008e-001
    endloop
  endfacet
  facet normal  0.000000e+000  1.000000e+000  0.000000e+000
    outer loop
      vertex  0.000000e+000  1.181102e+000  0.000000e+000
      vertex  0.000000e+000  1.181102e+000  3.937008e-001
      vertex  1.653543e+000  1.181102e+000  0.000000e+000
    endloop
  endfacet
  facet normal  0.000000e+000  1.000000e+000  -0.000000e+000
    outer loop
      vertex  1.653543e+000  1.181102e+000  0.000000e+000
      vertex  0.000000e+000  1.181102e+000  3.937008e-001
      vertex  1.653543e+000  1.181102e+000  3.937008e-001
    endloop
  endfacet
  facet normal  0.000000e+000  0.000000e+000 -1.000000e+000
    outer loop
      vertex  0.000000e+000  0.000000e+000  0.000000e+000
      vertex  0.000000e+000  1.181102e+000  0.000000e+000
      vertex  1.653543e+000  0.000000e+000  0.000000e+000
    endloop
  endfacet
  facet normal  0.000000e+000  0.000000e+000 -1.000000e+000
    outer loop
      vertex  1.653543e+000  0.000000e+000  0.000000e+000
      vertex  0.000000e+000  1.181102e+000  0.000000e+000
      vertex  1.653543e+000  1.181102e+000  0.000000e+000
    endloop
  endfacet
endsolid CATIA STL
