solid CATIA STL
  facet normal  0.000000e+000  -0.000000e+000  9.999999e-001
    outer loop
      vertex -3.937008e-001  0.000000e+000  3.937008e-001
      vertex  3.937008e-001  0.000000e+000  3.937008e-001
      vertex  3.937008e-001  8.661417e-001  3.937008e-001
    endloop
  endfacet
  facet normal  0.000000e+000  0.000000e+000  9.999999e-001
    outer loop
      vertex -3.937008e-001  0.000000e+000  3.937008e-001
      vertex  3.937008e-001  8.661417e-001  3.937008e-001
      vertex  2.300000e-001  8.661417e-001  3.937008e-001
    endloop
  endfacet
  facet normal  0.000000e+000  0.000000e+000  1.000000e+000
    outer loop
      vertex -3.937008e-001  0.000000e+000  3.937008e-001
      vertex  2.300000e-001  8.661417e-001  3.937008e-001
      vertex  8.615562e-003  8.802776e-001  3.937008e-001
    endloop
  endfacet
  facet normal  0.000000e+000  0.000000e+000  1.000000e+000
    outer loop
      vertex -3.937008e-001  0.000000e+000  3.937008e-001
      vertex  8.615562e-003  8.802776e-001  3.937008e-001
      vertex -8.615562e-003  8.802776e-001  3.937008e-001
    endloop
  endfacet
  facet normal  0.000000e+000  0.000000e+000  1.000000e+000
    outer loop
      vertex -3.937008e-001  0.000000e+000  3.937008e-001
      vertex -8.615562e-003  8.802776e-001  3.937008e-001
      vertex -2.300000e-001  8.661417e-001  3.937008e-001
    endloop
  endfacet
  facet normal  0.000000e+000  0.000000e+000  9.999999e-001
    outer loop
      vertex -3.937008e-001  0.000000e+000  3.937008e-001
      vertex -2.300000e-001  8.661417e-001  3.937008e-001
      vertex -3.937008e-001  8.661417e-001  3.937008e-001
    endloop
  endfacet
  facet normal  0.000000e+000  0.000000e+000  1.000000e+000
    outer loop
      vertex -2.300000e-001  8.661417e-001  3.937008e-001
      vertex -8.615562e-003  8.802776e-001  3.937008e-001
      vertex -2.561167e-002  8.831137e-001  3.937008e-001
    endloop
  endfacet
  facet normal  0.000000e+000  0.000000e+000  1.000000e+000
    outer loop
      vertex -2.300000e-001  8.661417e-001  3.937008e-001
      vertex -2.561167e-002  8.831137e-001  3.937008e-001
      vertex -4.190917e-002  8.887087e-001  3.937008e-001
    endloop
  endfacet
  facet normal  0.000000e+000  0.000000e+000  1.000000e+000
    outer loop
      vertex -2.300000e-001  8.661417e-001  3.937008e-001
      vertex -4.190917e-002  8.887087e-001  3.937008e-001
      vertex -5.706349e-002  8.969098e-001  3.937008e-001
    endloop
  endfacet
  facet normal  0.000000e+000  0.000000e+000  9.999999e-001
    outer loop
      vertex -2.300000e-001  8.661417e-001  3.937008e-001
      vertex -5.706349e-002  8.969098e-001  3.937008e-001
      vertex -7.066126e-002  9.074934e-001  3.937008e-001
    endloop
  endfacet
  facet normal  0.000000e+000  0.000000e+000  9.999999e-001
    outer loop
      vertex -2.300000e-001  8.661417e-001  3.937008e-001
      vertex -7.066126e-002  9.074934e-001  3.937008e-001
      vertex -8.233158e-002  9.201707e-001  3.937008e-001
    endloop
  endfacet
  facet normal  0.000000e+000  0.000000e+000  1.000000e+000
    outer loop
      vertex -2.300000e-001  8.661417e-001  3.937008e-001
      vertex -8.233158e-002  9.201707e-001  3.937008e-001
      vertex -9.175612e-002  9.345960e-001  3.937008e-001
    endloop
  endfacet
  facet normal  0.000000e+000  0.000000e+000  1.000000e+000
    outer loop
      vertex -2.300000e-001  8.661417e-001  3.937008e-001
      vertex -9.175612e-002  9.345960e-001  3.937008e-001
      vertex -9.867778e-002  9.503759e-001  3.937008e-001
    endloop
  endfacet
  facet normal  0.000000e+000  0.000000e+000  9.999999e-001
    outer loop
      vertex -2.300000e-001  8.661417e-001  3.937008e-001
      vertex -9.867778e-002  9.503759e-001  3.937008e-001
      vertex -1.029078e-001  9.670797e-001  3.937008e-001
    endloop
  endfacet
  facet normal  0.000000e+000  0.000000e+000  1.000000e+000
    outer loop
      vertex -2.300000e-001  8.661417e-001  3.937008e-001
      vertex -1.029078e-001  9.670797e-001  3.937008e-001
      vertex -1.043307e-001  9.842520e-001  3.937008e-001
    endloop
  endfacet
  facet normal  0.000000e+000  -0.000000e+000  1.000000e+000
    outer loop
      vertex -2.300000e-001  8.661417e-001  3.937008e-001
      vertex -1.043307e-001  9.842520e-001  3.937008e-001
      vertex -1.029078e-001  1.001424e+000  3.937008e-001
    endloop
  endfacet
  facet normal  0.000000e+000  -0.000000e+000  1.000000e+000
    outer loop
      vertex -2.300000e-001  8.661417e-001  3.937008e-001
      vertex -1.029078e-001  1.001424e+000  3.937008e-001
      vertex -9.867778e-002  1.018128e+000  3.937008e-001
    endloop
  endfacet
  facet normal  0.000000e+000  -0.000000e+000  1.000000e+000
    outer loop
      vertex -2.300000e-001  8.661417e-001  3.937008e-001
      vertex -9.867778e-002  1.018128e+000  3.937008e-001
      vertex -9.175612e-002  1.033908e+000  3.937008e-001
    endloop
  endfacet
  facet normal  0.000000e+000  -0.000000e+000  1.000000e+000
    outer loop
      vertex -2.300000e-001  8.661417e-001  3.937008e-001
      vertex -9.175612e-002  1.033908e+000  3.937008e-001
      vertex -8.233158e-002  1.048333e+000  3.937008e-001
    endloop
  endfacet
  facet normal  0.000000e+000  0.000000e+000  9.999999e-001
    outer loop
      vertex -2.300000e-001  1.102362e+000  3.937008e-001
      vertex -2.300000e-001  8.661417e-001  3.937008e-001
      vertex -8.233158e-002  1.048333e+000  3.937008e-001
    endloop
  endfacet
  facet normal  0.000000e+000  -0.000000e+000  9.999999e-001
    outer loop
      vertex -2.300000e-001  1.102362e+000  3.937008e-001
      vertex -8.233158e-002  1.048333e+000  3.937008e-001
      vertex -7.066126e-002  1.061011e+000  3.937008e-001
    endloop
  endfacet
  facet normal  0.000000e+000  -0.000000e+000  9.999999e-001
    outer loop
      vertex -2.300000e-001  1.102362e+000  3.937008e-001
      vertex -7.066126e-002  1.061011e+000  3.937008e-001
      vertex -5.706349e-002  1.071594e+000  3.937008e-001
    endloop
  endfacet
  facet normal  0.000000e+000  -0.000000e+000  1.000000e+000
    outer loop
      vertex -2.300000e-001  1.102362e+000  3.937008e-001
      vertex -5.706349e-002  1.071594e+000  3.937008e-001
      vertex -4.190917e-002  1.079795e+000  3.937008e-001
    endloop
  endfacet
  facet normal  0.000000e+000  -0.000000e+000  9.999999e-001
    outer loop
      vertex -2.300000e-001  1.102362e+000  3.937008e-001
      vertex -4.190917e-002  1.079795e+000  3.937008e-001
      vertex -2.561167e-002  1.085390e+000  3.937008e-001
    endloop
  endfacet
  facet normal  0.000000e+000  -0.000000e+000  1.000000e+000
    outer loop
      vertex -2.300000e-001  1.102362e+000  3.937008e-001
      vertex -2.561167e-002  1.085390e+000  3.937008e-001
      vertex -8.615562e-003  1.088226e+000  3.937008e-001
    endloop
  endfacet
  facet normal  0.000000e+000  0.000000e+000  1.000000e+000
    outer loop
      vertex -2.300000e-001  1.102362e+000  3.937008e-001
      vertex -8.615562e-003  1.088226e+000  3.937008e-001
      vertex -3.937008e-001  1.377953e+000  3.937008e-001
    endloop
  endfacet
  facet normal  0.000000e+000  0.000000e+000  1.000000e+000
    outer loop
      vertex -2.300000e-001  1.102362e+000  3.937008e-001
      vertex -3.937008e-001  1.377953e+000  3.937008e-001
      vertex -3.937008e-001  1.102362e+000  3.937008e-001
    endloop
  endfacet
  facet normal  0.000000e+000  0.000000e+000  1.000000e+000
    outer loop
      vertex  2.300000e-001  8.661417e-001  3.937008e-001
      vertex  8.233158e-002  1.048333e+000  3.937008e-001
      vertex  9.175612e-002  1.033908e+000  3.937008e-001
    endloop
  endfacet
  facet normal  0.000000e+000  0.000000e+000  1.000000e+000
    outer loop
      vertex  2.300000e-001  8.661417e-001  3.937008e-001
      vertex  9.175612e-002  1.033908e+000  3.937008e-001
      vertex  9.867778e-002  1.018128e+000  3.937008e-001
    endloop
  endfacet
  facet normal  0.000000e+000  0.000000e+000  1.000000e+000
    outer loop
      vertex  2.300000e-001  8.661417e-001  3.937008e-001
      vertex  9.867778e-002  1.018128e+000  3.937008e-001
      vertex  1.029078e-001  1.001424e+000  3.937008e-001
    endloop
  endfacet
  facet normal  0.000000e+000  0.000000e+000  1.000000e+000
    outer loop
      vertex  2.300000e-001  8.661417e-001  3.937008e-001
      vertex  1.029078e-001  1.001424e+000  3.937008e-001
      vertex  1.043307e-001  9.842520e-001  3.937008e-001
    endloop
  endfacet
  facet normal  0.000000e+000  0.000000e+000  1.000000e+000
    outer loop
      vertex  2.300000e-001  8.661417e-001  3.937008e-001
      vertex  1.043307e-001  9.842520e-001  3.937008e-001
      vertex  1.029078e-001  9.670797e-001  3.937008e-001
    endloop
  endfacet
  facet normal  0.000000e+000  0.000000e+000  9.999999e-001
    outer loop
      vertex  2.300000e-001  8.661417e-001  3.937008e-001
      vertex  1.029078e-001  9.670797e-001  3.937008e-001
      vertex  9.867778e-002  9.503759e-001  3.937008e-001
    endloop
  endfacet
  facet normal  0.000000e+000  0.000000e+000  1.000000e+000
    outer loop
      vertex  2.300000e-001  8.661417e-001  3.937008e-001
      vertex  9.867778e-002  9.503759e-001  3.937008e-001
      vertex  9.175612e-002  9.345960e-001  3.937008e-001
    endloop
  endfacet
  facet normal  0.000000e+000  0.000000e+000  1.000000e+000
    outer loop
      vertex  2.300000e-001  8.661417e-001  3.937008e-001
      vertex  9.175612e-002  9.345960e-001  3.937008e-001
      vertex  8.233158e-002  9.201707e-001  3.937008e-001
    endloop
  endfacet
  facet normal  0.000000e+000  0.000000e+000  9.999999e-001
    outer loop
      vertex  2.300000e-001  8.661417e-001  3.937008e-001
      vertex  8.233158e-002  9.201707e-001  3.937008e-001
      vertex  7.066126e-002  9.074934e-001  3.937008e-001
    endloop
  endfacet
  facet normal  0.000000e+000  0.000000e+000  9.999999e-001
    outer loop
      vertex  2.300000e-001  8.661417e-001  3.937008e-001
      vertex  7.066126e-002  9.074934e-001  3.937008e-001
      vertex  5.706349e-002  8.969098e-001  3.937008e-001
    endloop
  endfacet
  facet normal  0.000000e+000  0.000000e+000  1.000000e+000
    outer loop
      vertex  2.300000e-001  8.661417e-001  3.937008e-001
      vertex  5.706349e-002  8.969098e-001  3.937008e-001
      vertex  4.190917e-002  8.887087e-001  3.937008e-001
    endloop
  endfacet
  facet normal  0.000000e+000  0.000000e+000  9.999999e-001
    outer loop
      vertex  2.300000e-001  8.661417e-001  3.937008e-001
      vertex  4.190917e-002  8.887087e-001  3.937008e-001
      vertex  2.561167e-002  8.831137e-001  3.937008e-001
    endloop
  endfacet
  facet normal  0.000000e+000  0.000000e+000  1.000000e+000
    outer loop
      vertex  2.300000e-001  8.661417e-001  3.937008e-001
      vertex  2.561167e-002  8.831137e-001  3.937008e-001
      vertex  8.615562e-003  8.802776e-001  3.937008e-001
    endloop
  endfacet
  facet normal  -0.000000e+000  0.000000e+000  1.000000e+000
    outer loop
      vertex  2.300000e-001  1.102362e+000  3.937008e-001
      vertex  8.615562e-003  1.088226e+000  3.937008e-001
      vertex  2.561167e-002  1.085390e+000  3.937008e-001
    endloop
  endfacet
  facet normal  -0.000000e+000  0.000000e+000  1.000000e+000
    outer loop
      vertex  2.300000e-001  1.102362e+000  3.937008e-001
      vertex  2.561167e-002  1.085390e+000  3.937008e-001
      vertex  4.190917e-002  1.079795e+000  3.937008e-001
    endloop
  endfacet
  facet normal  -0.000000e+000  0.000000e+000  1.000000e+000
    outer loop
      vertex  2.300000e-001  1.102362e+000  3.937008e-001
      vertex  4.190917e-002  1.079795e+000  3.937008e-001
      vertex  5.706349e-002  1.071594e+000  3.937008e-001
    endloop
  endfacet
  facet normal  -0.000000e+000  0.000000e+000  9.999999e-001
    outer loop
      vertex  2.300000e-001  1.102362e+000  3.937008e-001
      vertex  5.706349e-002  1.071594e+000  3.937008e-001
      vertex  7.066126e-002  1.061011e+000  3.937008e-001
    endloop
  endfacet
  facet normal  -0.000000e+000  0.000000e+000  9.999999e-001
    outer loop
      vertex  2.300000e-001  1.102362e+000  3.937008e-001
      vertex  7.066126e-002  1.061011e+000  3.937008e-001
      vertex  8.233158e-002  1.048333e+000  3.937008e-001
    endloop
  endfacet
  facet normal  -0.000000e+000  0.000000e+000  9.999999e-001
    outer loop
      vertex  2.300000e-001  1.102362e+000  3.937008e-001
      vertex  8.233158e-002  1.048333e+000  3.937008e-001
      vertex  2.300000e-001  8.661417e-001  3.937008e-001
    endloop
  endfacet
  facet normal  -0.000000e+000  0.000000e+000  1.000000e+000
    outer loop
      vertex  3.937008e-001  1.377953e+000  3.937008e-001
      vertex -3.937008e-001  1.377953e+000  3.937008e-001
      vertex  3.937008e-001  1.102362e+000  3.937008e-001
    endloop
  endfacet
  facet normal  0.000000e+000  0.000000e+000  1.000000e+000
    outer loop
      vertex  3.937008e-001  1.102362e+000  3.937008e-001
      vertex -3.937008e-001  1.377953e+000  3.937008e-001
      vertex  2.300000e-001  1.102362e+000  3.937008e-001
    endloop
  endfacet
  facet normal  0.000000e+000  -0.000000e+000  1.000000e+000
    outer loop
      vertex -3.937008e-001  1.377953e+000  3.937008e-001
      vertex -8.615562e-003  1.088226e+000  3.937008e-001
      vertex  2.300000e-001  1.102362e+000  3.937008e-001
    endloop
  endfacet
  facet normal  0.000000e+000  0.000000e+000  1.000000e+000
    outer loop
      vertex  2.300000e-001  1.102362e+000  3.937008e-001
      vertex -8.615562e-003  1.088226e+000  3.937008e-001
      vertex  8.615562e-003  1.088226e+000  3.937008e-001
    endloop
  endfacet
  facet normal  1.000000e+000  0.000000e+000  0.000000e+000
    outer loop
      vertex -2.300000e-001  1.102362e+000  3.937008e-001
      vertex -2.300000e-001  1.102362e+000  4.724410e-001
      vertex -2.300000e-001  8.661417e-001  3.937008e-001
    endloop
  endfacet
  facet normal  1.000000e+000  0.000000e+000  0.000000e+000
    outer loop
      vertex -2.300000e-001  8.661417e-001  3.937008e-001
      vertex -2.300000e-001  1.102362e+000  4.724410e-001
      vertex -2.300000e-001  9.842520e-001  4.724410e-001
    endloop
  endfacet
  facet normal  1.000000e+000  0.000000e+000  0.000000e+000
    outer loop
      vertex -2.300000e-001  8.661417e-001  3.937008e-001
      vertex -2.300000e-001  9.842520e-001  4.724410e-001
      vertex -2.300000e-001  8.661417e-001  4.724410e-001
    endloop
  endfacet
  facet normal -1.000000e+000  -0.000000e+000  0.000000e+000
    outer loop
      vertex  2.300000e-001  8.661417e-001  4.724410e-001
      vertex  2.300000e-001  9.842520e-001  4.724410e-001
      vertex  2.300000e-001  8.661417e-001  3.937008e-001
    endloop
  endfacet
  facet normal -1.000000e+000  0.000000e+000  0.000000e+000
    outer loop
      vertex  2.300000e-001  8.661417e-001  3.937008e-001
      vertex  2.300000e-001  9.842520e-001  4.724410e-001
      vertex  2.300000e-001  1.102362e+000  4.724410e-001
    endloop
  endfacet
  facet normal -1.000000e+000  0.000000e+000  -0.000000e+000
    outer loop
      vertex  2.300000e-001  8.661417e-001  3.937008e-001
      vertex  2.300000e-001  1.102362e+000  4.724410e-001
      vertex  2.300000e-001  1.102362e+000  3.937008e-001
    endloop
  endfacet
  facet normal  0.000000e+000  1.000000e+000  0.000000e+000
    outer loop
      vertex  2.300000e-001  1.102362e+000  4.724410e-001
      vertex  3.937008e-001  1.102362e+000  4.724410e-001
      vertex  2.300000e-001  1.102362e+000  3.937008e-001
    endloop
  endfacet
  facet normal  0.000000e+000  1.000000e+000  0.000000e+000
    outer loop
      vertex  2.300000e-001  1.102362e+000  3.937008e-001
      vertex  3.937008e-001  1.102362e+000  4.724410e-001
      vertex  3.937008e-001  1.102362e+000  3.937008e-001
    endloop
  endfacet
  facet normal  0.000000e+000  1.000000e+000  0.000000e+000
    outer loop
      vertex -3.937008e-001  1.102362e+000  4.724410e-001
      vertex -2.300000e-001  1.102362e+000  4.724410e-001
      vertex -3.937008e-001  1.102362e+000  3.937008e-001
    endloop
  endfacet
  facet normal  0.000000e+000  1.000000e+000  0.000000e+000
    outer loop
      vertex -3.937008e-001  1.102362e+000  3.937008e-001
      vertex -2.300000e-001  1.102362e+000  4.724410e-001
      vertex -2.300000e-001  1.102362e+000  3.937008e-001
    endloop
  endfacet
  facet normal  0.000000e+000 -1.000000e+000  0.000000e+000
    outer loop
      vertex  2.300000e-001  8.661417e-001  4.724410e-001
      vertex  2.300000e-001  8.661417e-001  3.937008e-001
      vertex  3.937008e-001  8.661417e-001  4.724410e-001
    endloop
  endfacet
  facet normal  0.000000e+000 -1.000000e+000  -0.000000e+000
    outer loop
      vertex  3.937008e-001  8.661417e-001  4.724410e-001
      vertex  2.300000e-001  8.661417e-001  3.937008e-001
      vertex  3.937008e-001  8.661417e-001  3.937008e-001
    endloop
  endfacet
  facet normal  0.000000e+000 -1.000000e+000  0.000000e+000
    outer loop
      vertex -3.937008e-001  8.661417e-001  4.724410e-001
      vertex -3.937008e-001  8.661417e-001  3.937008e-001
      vertex -2.300000e-001  8.661417e-001  4.724410e-001
    endloop
  endfacet
  facet normal  0.000000e+000 -1.000000e+000  -0.000000e+000
    outer loop
      vertex -2.300000e-001  8.661417e-001  4.724410e-001
      vertex -3.937008e-001  8.661417e-001  3.937008e-001
      vertex -2.300000e-001  8.661417e-001  3.937008e-001
    endloop
  endfacet
  facet normal  0.000000e+000  0.000000e+000  1.000000e+000
    outer loop
      vertex -3.937008e-001  8.661417e-001  4.724410e-001
      vertex -2.300000e-001  8.661417e-001  4.724410e-001
      vertex -3.937008e-001  9.842520e-001  4.724410e-001
    endloop
  endfacet
  facet normal  -0.000000e+000  0.000000e+000  1.000000e+000
    outer loop
      vertex -3.937008e-001  9.842520e-001  4.724410e-001
      vertex -2.300000e-001  8.661417e-001  4.724410e-001
      vertex -2.300000e-001  9.842520e-001  4.724410e-001
    endloop
  endfacet
  facet normal  0.000000e+000  0.000000e+000  1.000000e+000
    outer loop
      vertex  2.300000e-001  8.661417e-001  4.724410e-001
      vertex  3.937008e-001  8.661417e-001  4.724410e-001
      vertex  2.300000e-001  9.842520e-001  4.724410e-001
    endloop
  endfacet
  facet normal  -0.000000e+000  0.000000e+000  1.000000e+000
    outer loop
      vertex  2.300000e-001  9.842520e-001  4.724410e-001
      vertex  3.937008e-001  8.661417e-001  4.724410e-001
      vertex  3.937008e-001  9.842520e-001  4.724410e-001
    endloop
  endfacet
  facet normal  0.000000e+000  0.000000e+000  1.000000e+000
    outer loop
      vertex  2.300000e-001  9.842520e-001  4.724410e-001
      vertex  3.937008e-001  9.842520e-001  4.724410e-001
      vertex  2.300000e-001  1.102362e+000  4.724410e-001
    endloop
  endfacet
  facet normal  -0.000000e+000  0.000000e+000  1.000000e+000
    outer loop
      vertex  2.300000e-001  1.102362e+000  4.724410e-001
      vertex  3.937008e-001  9.842520e-001  4.724410e-001
      vertex  3.937008e-001  1.102362e+000  4.724410e-001
    endloop
  endfacet
  facet normal  0.000000e+000  0.000000e+000  1.000000e+000
    outer loop
      vertex -3.937008e-001  9.842520e-001  4.724410e-001
      vertex -2.300000e-001  9.842520e-001  4.724410e-001
      vertex -3.937008e-001  1.102362e+000  4.724410e-001
    endloop
  endfacet
  facet normal  -0.000000e+000  0.000000e+000  1.000000e+000
    outer loop
      vertex -3.937008e-001  1.102362e+000  4.724410e-001
      vertex -2.300000e-001  9.842520e-001  4.724410e-001
      vertex -2.300000e-001  1.102362e+000  4.724410e-001
    endloop
  endfacet
  facet normal -1.645956e-001  9.863611e-001  0.000000e+000
    outer loop
      vertex  8.615562e-003  8.802776e-001  0.000000e+000
      vertex  2.561167e-002  8.831137e-001  3.937008e-001
      vertex  2.561167e-002  8.831137e-001  0.000000e+000
    endloop
  endfacet
  facet normal -3.246984e-001  9.458176e-001  0.000000e+000
    outer loop
      vertex  2.561167e-002  8.831137e-001  0.000000e+000
      vertex  2.561167e-002  8.831137e-001  3.937008e-001
      vertex  4.190917e-002  8.887087e-001  3.937008e-001
    endloop
  endfacet
  facet normal -3.246984e-001  9.458176e-001  0.000000e+000
    outer loop
      vertex  2.561167e-002  8.831137e-001  0.000000e+000
      vertex  4.190917e-002  8.887087e-001  3.937008e-001
      vertex  4.190917e-002  8.887087e-001  0.000000e+000
    endloop
  endfacet
  facet normal -4.759492e-001  8.794727e-001  0.000000e+000
    outer loop
      vertex  4.190917e-002  8.887087e-001  0.000000e+000
      vertex  4.190917e-002  8.887087e-001  3.937008e-001
      vertex  5.706349e-002  8.969098e-001  3.937008e-001
    endloop
  endfacet
  facet normal -4.759492e-001  8.794727e-001  0.000000e+000
    outer loop
      vertex  4.190917e-002  8.887087e-001  0.000000e+000
      vertex  5.706349e-002  8.969098e-001  3.937008e-001
      vertex  5.706349e-002  8.969098e-001  0.000000e+000
    endloop
  endfacet
  facet normal -6.142112e-001  7.891417e-001  0.000000e+000
    outer loop
      vertex  5.706349e-002  8.969098e-001  0.000000e+000
      vertex  5.706349e-002  8.969098e-001  3.937008e-001
      vertex  7.066126e-002  9.074934e-001  3.937008e-001
    endloop
  endfacet
  facet normal -6.142112e-001  7.891417e-001  0.000000e+000
    outer loop
      vertex  5.706349e-002  8.969098e-001  0.000000e+000
      vertex  7.066126e-002  9.074934e-001  3.937008e-001
      vertex  7.066126e-002  9.074934e-001  0.000000e+000
    endloop
  endfacet
  facet normal -7.357235e-001  6.772819e-001  0.000000e+000
    outer loop
      vertex  7.066126e-002  9.074934e-001  0.000000e+000
      vertex  7.066126e-002  9.074934e-001  3.937008e-001
      vertex  8.233158e-002  9.201707e-001  3.937008e-001
    endloop
  endfacet
  facet normal -7.357235e-001  6.772819e-001  0.000000e+000
    outer loop
      vertex  7.066126e-002  9.074934e-001  0.000000e+000
      vertex  8.233158e-002  9.201707e-001  3.937008e-001
      vertex  8.233158e-002  9.201707e-001  0.000000e+000
    endloop
  endfacet
  facet normal -8.371667e-001  5.469479e-001  0.000000e+000
    outer loop
      vertex  8.233158e-002  9.201707e-001  0.000000e+000
      vertex  8.233158e-002  9.201707e-001  3.937008e-001
      vertex  9.175612e-002  9.345960e-001  3.937008e-001
    endloop
  endfacet
  facet normal -8.371667e-001  5.469479e-001  0.000000e+000
    outer loop
      vertex  8.233158e-002  9.201707e-001  0.000000e+000
      vertex  9.175612e-002  9.345960e-001  3.937008e-001
      vertex  9.175612e-002  9.345960e-001  0.000000e+000
    endloop
  endfacet
  facet normal -9.157739e-001  4.016940e-001  0.000000e+000
    outer loop
      vertex  9.175612e-002  9.345960e-001  0.000000e+000
      vertex  9.175612e-002  9.345960e-001  3.937008e-001
      vertex  9.867778e-002  9.503759e-001  3.937008e-001
    endloop
  endfacet
  facet normal -9.157739e-001  4.016940e-001  0.000000e+000
    outer loop
      vertex  9.175612e-002  9.345960e-001  0.000000e+000
      vertex  9.867778e-002  9.503759e-001  3.937008e-001
      vertex  9.867778e-002  9.503759e-001  0.000000e+000
    endloop
  endfacet
  facet normal -9.694000e-001  2.454866e-001  0.000000e+000
    outer loop
      vertex  9.867778e-002  9.503759e-001  0.000000e+000
      vertex  9.867778e-002  9.503759e-001  3.937008e-001
      vertex  1.029078e-001  9.670797e-001  3.937008e-001
    endloop
  endfacet
  facet normal -9.694000e-001  2.454866e-001  0.000000e+000
    outer loop
      vertex  9.867778e-002  9.503759e-001  0.000000e+000
      vertex  1.029078e-001  9.670797e-001  3.937008e-001
      vertex  1.029078e-001  9.670797e-001  0.000000e+000
    endloop
  endfacet
  facet normal -9.965844e-001  8.257931e-002  0.000000e+000
    outer loop
      vertex  1.029078e-001  9.670797e-001  0.000000e+000
      vertex  1.029078e-001  9.670797e-001  3.937008e-001
      vertex  1.043307e-001  9.842520e-001  3.937008e-001
    endloop
  endfacet
  facet normal -9.965844e-001  8.257931e-002  0.000000e+000
    outer loop
      vertex  1.029078e-001  9.670797e-001  0.000000e+000
      vertex  1.043307e-001  9.842520e-001  3.937008e-001
      vertex  1.043307e-001  9.842520e-001  0.000000e+000
    endloop
  endfacet
  facet normal -1.645956e-001  9.863611e-001  0.000000e+000
    outer loop
      vertex  2.561167e-002  8.831137e-001  3.937008e-001
      vertex  8.615562e-003  8.802776e-001  0.000000e+000
      vertex  8.615562e-003  8.802776e-001  3.937008e-001
    endloop
  endfacet
  facet normal  0.000000e+000  1.000000e+000  0.000000e+000
    outer loop
      vertex  8.615562e-003  8.802776e-001  3.937008e-001
      vertex  8.615562e-003  8.802776e-001  0.000000e+000
      vertex -8.615562e-003  8.802776e-001  0.000000e+000
    endloop
  endfacet
  facet normal  0.000000e+000  1.000000e+000  0.000000e+000
    outer loop
      vertex  8.615562e-003  8.802776e-001  3.937008e-001
      vertex -8.615562e-003  8.802776e-001  0.000000e+000
      vertex -8.615562e-003  8.802776e-001  3.937008e-001
    endloop
  endfacet
  facet normal  1.645956e-001  9.863611e-001  0.000000e+000
    outer loop
      vertex -8.615562e-003  8.802776e-001  3.937008e-001
      vertex -8.615562e-003  8.802776e-001  0.000000e+000
      vertex -2.561167e-002  8.831137e-001  0.000000e+000
    endloop
  endfacet
  facet normal  1.645956e-001  9.863611e-001  -0.000000e+000
    outer loop
      vertex -8.615562e-003  8.802776e-001  3.937008e-001
      vertex -2.561167e-002  8.831137e-001  0.000000e+000
      vertex -2.561167e-002  8.831137e-001  3.937008e-001
    endloop
  endfacet
  facet normal  3.246984e-001  9.458176e-001  0.000000e+000
    outer loop
      vertex -2.561167e-002  8.831137e-001  3.937008e-001
      vertex -2.561167e-002  8.831137e-001  0.000000e+000
      vertex -4.190917e-002  8.887087e-001  0.000000e+000
    endloop
  endfacet
  facet normal  3.246984e-001  9.458176e-001  -0.000000e+000
    outer loop
      vertex -2.561167e-002  8.831137e-001  3.937008e-001
      vertex -4.190917e-002  8.887087e-001  0.000000e+000
      vertex -4.190917e-002  8.887087e-001  3.937008e-001
    endloop
  endfacet
  facet normal  4.759492e-001  8.794727e-001  0.000000e+000
    outer loop
      vertex -4.190917e-002  8.887087e-001  3.937008e-001
      vertex -4.190917e-002  8.887087e-001  0.000000e+000
      vertex -5.706349e-002  8.969098e-001  0.000000e+000
    endloop
  endfacet
  facet normal  4.759492e-001  8.794727e-001  -0.000000e+000
    outer loop
      vertex -4.190917e-002  8.887087e-001  3.937008e-001
      vertex -5.706349e-002  8.969098e-001  0.000000e+000
      vertex -5.706349e-002  8.969098e-001  3.937008e-001
    endloop
  endfacet
  facet normal  6.142112e-001  7.891417e-001  0.000000e+000
    outer loop
      vertex -5.706349e-002  8.969098e-001  3.937008e-001
      vertex -5.706349e-002  8.969098e-001  0.000000e+000
      vertex -7.066126e-002  9.074934e-001  0.000000e+000
    endloop
  endfacet
  facet normal  6.142112e-001  7.891417e-001  -0.000000e+000
    outer loop
      vertex -5.706349e-002  8.969098e-001  3.937008e-001
      vertex -7.066126e-002  9.074934e-001  0.000000e+000
      vertex -7.066126e-002  9.074934e-001  3.937008e-001
    endloop
  endfacet
  facet normal  7.357235e-001  6.772819e-001  0.000000e+000
    outer loop
      vertex -7.066126e-002  9.074934e-001  3.937008e-001
      vertex -7.066126e-002  9.074934e-001  0.000000e+000
      vertex -8.233158e-002  9.201707e-001  0.000000e+000
    endloop
  endfacet
  facet normal  7.357235e-001  6.772819e-001  -0.000000e+000
    outer loop
      vertex -7.066126e-002  9.074934e-001  3.937008e-001
      vertex -8.233158e-002  9.201707e-001  0.000000e+000
      vertex -8.233158e-002  9.201707e-001  3.937008e-001
    endloop
  endfacet
  facet normal  8.371667e-001  5.469479e-001  0.000000e+000
    outer loop
      vertex -8.233158e-002  9.201707e-001  3.937008e-001
      vertex -8.233158e-002  9.201707e-001  0.000000e+000
      vertex -9.175612e-002  9.345960e-001  0.000000e+000
    endloop
  endfacet
  facet normal  8.371667e-001  5.469479e-001  -0.000000e+000
    outer loop
      vertex -8.233158e-002  9.201707e-001  3.937008e-001
      vertex -9.175612e-002  9.345960e-001  0.000000e+000
      vertex -9.175612e-002  9.345960e-001  3.937008e-001
    endloop
  endfacet
  facet normal  9.157739e-001  4.016940e-001  0.000000e+000
    outer loop
      vertex -9.175612e-002  9.345960e-001  3.937008e-001
      vertex -9.175612e-002  9.345960e-001  0.000000e+000
      vertex -9.867778e-002  9.503759e-001  0.000000e+000
    endloop
  endfacet
  facet normal  9.157739e-001  4.016940e-001  -0.000000e+000
    outer loop
      vertex -9.175612e-002  9.345960e-001  3.937008e-001
      vertex -9.867778e-002  9.503759e-001  0.000000e+000
      vertex -9.867778e-002  9.503759e-001  3.937008e-001
    endloop
  endfacet
  facet normal  9.694000e-001  2.454866e-001  0.000000e+000
    outer loop
      vertex -9.867778e-002  9.503759e-001  3.937008e-001
      vertex -9.867778e-002  9.503759e-001  0.000000e+000
      vertex -1.029078e-001  9.670797e-001  0.000000e+000
    endloop
  endfacet
  facet normal  9.694000e-001  2.454866e-001  -0.000000e+000
    outer loop
      vertex -9.867778e-002  9.503759e-001  3.937008e-001
      vertex -1.029078e-001  9.670797e-001  0.000000e+000
      vertex -1.029078e-001  9.670797e-001  3.937008e-001
    endloop
  endfacet
  facet normal  9.965844e-001  8.257931e-002  0.000000e+000
    outer loop
      vertex -1.029078e-001  9.670797e-001  3.937008e-001
      vertex -1.029078e-001  9.670797e-001  0.000000e+000
      vertex -1.043307e-001  9.842520e-001  0.000000e+000
    endloop
  endfacet
  facet normal  9.965844e-001  8.257931e-002  -0.000000e+000
    outer loop
      vertex -1.029078e-001  9.670797e-001  3.937008e-001
      vertex -1.043307e-001  9.842520e-001  0.000000e+000
      vertex -1.043307e-001  9.842520e-001  3.937008e-001
    endloop
  endfacet
  facet normal  1.645956e-001 -9.863611e-001  0.000000e+000
    outer loop
      vertex -8.615562e-003  1.088226e+000  0.000000e+000
      vertex -2.561167e-002  1.085390e+000  3.937008e-001
      vertex -2.561167e-002  1.085390e+000  0.000000e+000
    endloop
  endfacet
  facet normal  3.246984e-001 -9.458176e-001  0.000000e+000
    outer loop
      vertex -2.561167e-002  1.085390e+000  0.000000e+000
      vertex -2.561167e-002  1.085390e+000  3.937008e-001
      vertex -4.190917e-002  1.079795e+000  3.937008e-001
    endloop
  endfacet
  facet normal  3.246984e-001 -9.458176e-001  0.000000e+000
    outer loop
      vertex -2.561167e-002  1.085390e+000  0.000000e+000
      vertex -4.190917e-002  1.079795e+000  3.937008e-001
      vertex -4.190917e-002  1.079795e+000  0.000000e+000
    endloop
  endfacet
  facet normal  4.759492e-001 -8.794727e-001  0.000000e+000
    outer loop
      vertex -4.190917e-002  1.079795e+000  0.000000e+000
      vertex -4.190917e-002  1.079795e+000  3.937008e-001
      vertex -5.706349e-002  1.071594e+000  3.937008e-001
    endloop
  endfacet
  facet normal  4.759492e-001 -8.794727e-001  0.000000e+000
    outer loop
      vertex -4.190917e-002  1.079795e+000  0.000000e+000
      vertex -5.706349e-002  1.071594e+000  3.937008e-001
      vertex -5.706349e-002  1.071594e+000  0.000000e+000
    endloop
  endfacet
  facet normal  6.142112e-001 -7.891417e-001  0.000000e+000
    outer loop
      vertex -5.706349e-002  1.071594e+000  0.000000e+000
      vertex -5.706349e-002  1.071594e+000  3.937008e-001
      vertex -7.066126e-002  1.061011e+000  3.937008e-001
    endloop
  endfacet
  facet normal  6.142112e-001 -7.891417e-001  0.000000e+000
    outer loop
      vertex -5.706349e-002  1.071594e+000  0.000000e+000
      vertex -7.066126e-002  1.061011e+000  3.937008e-001
      vertex -7.066126e-002  1.061011e+000  0.000000e+000
    endloop
  endfacet
  facet normal  7.357235e-001 -6.772819e-001  0.000000e+000
    outer loop
      vertex -7.066126e-002  1.061011e+000  0.000000e+000
      vertex -7.066126e-002  1.061011e+000  3.937008e-001
      vertex -8.233158e-002  1.048333e+000  3.937008e-001
    endloop
  endfacet
  facet normal  7.357235e-001 -6.772819e-001  0.000000e+000
    outer loop
      vertex -7.066126e-002  1.061011e+000  0.000000e+000
      vertex -8.233158e-002  1.048333e+000  3.937008e-001
      vertex -8.233158e-002  1.048333e+000  0.000000e+000
    endloop
  endfacet
  facet normal  8.371667e-001 -5.469479e-001  0.000000e+000
    outer loop
      vertex -8.233158e-002  1.048333e+000  0.000000e+000
      vertex -8.233158e-002  1.048333e+000  3.937008e-001
      vertex -9.175612e-002  1.033908e+000  3.937008e-001
    endloop
  endfacet
  facet normal  8.371667e-001 -5.469479e-001  0.000000e+000
    outer loop
      vertex -8.233158e-002  1.048333e+000  0.000000e+000
      vertex -9.175612e-002  1.033908e+000  3.937008e-001
      vertex -9.175612e-002  1.033908e+000  0.000000e+000
    endloop
  endfacet
  facet normal  9.157739e-001 -4.016940e-001  0.000000e+000
    outer loop
      vertex -9.175612e-002  1.033908e+000  0.000000e+000
      vertex -9.175612e-002  1.033908e+000  3.937008e-001
      vertex -9.867778e-002  1.018128e+000  3.937008e-001
    endloop
  endfacet
  facet normal  9.157739e-001 -4.016940e-001  0.000000e+000
    outer loop
      vertex -9.175612e-002  1.033908e+000  0.000000e+000
      vertex -9.867778e-002  1.018128e+000  3.937008e-001
      vertex -9.867778e-002  1.018128e+000  0.000000e+000
    endloop
  endfacet
  facet normal  9.694000e-001 -2.454866e-001  0.000000e+000
    outer loop
      vertex -9.867778e-002  1.018128e+000  0.000000e+000
      vertex -9.867778e-002  1.018128e+000  3.937008e-001
      vertex -1.029078e-001  1.001424e+000  3.937008e-001
    endloop
  endfacet
  facet normal  9.694000e-001 -2.454866e-001  0.000000e+000
    outer loop
      vertex -9.867778e-002  1.018128e+000  0.000000e+000
      vertex -1.029078e-001  1.001424e+000  3.937008e-001
      vertex -1.029078e-001  1.001424e+000  0.000000e+000
    endloop
  endfacet
  facet normal  9.965844e-001 -8.257931e-002  0.000000e+000
    outer loop
      vertex -1.029078e-001  1.001424e+000  0.000000e+000
      vertex -1.029078e-001  1.001424e+000  3.937008e-001
      vertex -1.043307e-001  9.842520e-001  3.937008e-001
    endloop
  endfacet
  facet normal  9.965844e-001 -8.257931e-002  0.000000e+000
    outer loop
      vertex -1.029078e-001  1.001424e+000  0.000000e+000
      vertex -1.043307e-001  9.842520e-001  3.937008e-001
      vertex -1.043307e-001  9.842520e-001  0.000000e+000
    endloop
  endfacet
  facet normal  1.645956e-001 -9.863611e-001  0.000000e+000
    outer loop
      vertex -2.561167e-002  1.085390e+000  3.937008e-001
      vertex -8.615562e-003  1.088226e+000  0.000000e+000
      vertex -8.615562e-003  1.088226e+000  3.937008e-001
    endloop
  endfacet
  facet normal  0.000000e+000 -1.000000e+000  0.000000e+000
    outer loop
      vertex -8.615562e-003  1.088226e+000  3.937008e-001
      vertex -8.615562e-003  1.088226e+000  0.000000e+000
      vertex  8.615562e-003  1.088226e+000  0.000000e+000
    endloop
  endfacet
  facet normal  0.000000e+000 -1.000000e+000  0.000000e+000
    outer loop
      vertex -8.615562e-003  1.088226e+000  3.937008e-001
      vertex  8.615562e-003  1.088226e+000  0.000000e+000
      vertex  8.615562e-003  1.088226e+000  3.937008e-001
    endloop
  endfacet
  facet normal -1.645956e-001 -9.863611e-001  -0.000000e+000
    outer loop
      vertex  8.615562e-003  1.088226e+000  3.937008e-001
      vertex  8.615562e-003  1.088226e+000  0.000000e+000
      vertex  2.561167e-002  1.085390e+000  0.000000e+000
    endloop
  endfacet
  facet normal -1.645956e-001 -9.863611e-001  0.000000e+000
    outer loop
      vertex  8.615562e-003  1.088226e+000  3.937008e-001
      vertex  2.561167e-002  1.085390e+000  0.000000e+000
      vertex  2.561167e-002  1.085390e+000  3.937008e-001
    endloop
  endfacet
  facet normal -3.246984e-001 -9.458176e-001  -0.000000e+000
    outer loop
      vertex  2.561167e-002  1.085390e+000  3.937008e-001
      vertex  2.561167e-002  1.085390e+000  0.000000e+000
      vertex  4.190917e-002  1.079795e+000  0.000000e+000
    endloop
  endfacet
  facet normal -3.246984e-001 -9.458176e-001  0.000000e+000
    outer loop
      vertex  2.561167e-002  1.085390e+000  3.937008e-001
      vertex  4.190917e-002  1.079795e+000  0.000000e+000
      vertex  4.190917e-002  1.079795e+000  3.937008e-001
    endloop
  endfacet
  facet normal -4.759492e-001 -8.794727e-001  -0.000000e+000
    outer loop
      vertex  4.190917e-002  1.079795e+000  3.937008e-001
      vertex  4.190917e-002  1.079795e+000  0.000000e+000
      vertex  5.706349e-002  1.071594e+000  0.000000e+000
    endloop
  endfacet
  facet normal -4.759492e-001 -8.794727e-001  0.000000e+000
    outer loop
      vertex  4.190917e-002  1.079795e+000  3.937008e-001
      vertex  5.706349e-002  1.071594e+000  0.000000e+000
      vertex  5.706349e-002  1.071594e+000  3.937008e-001
    endloop
  endfacet
  facet normal -6.142112e-001 -7.891417e-001  -0.000000e+000
    outer loop
      vertex  5.706349e-002  1.071594e+000  3.937008e-001
      vertex  5.706349e-002  1.071594e+000  0.000000e+000
      vertex  7.066126e-002  1.061011e+000  0.000000e+000
    endloop
  endfacet
  facet normal -6.142112e-001 -7.891417e-001  0.000000e+000
    outer loop
      vertex  5.706349e-002  1.071594e+000  3.937008e-001
      vertex  7.066126e-002  1.061011e+000  0.000000e+000
      vertex  7.066126e-002  1.061011e+000  3.937008e-001
    endloop
  endfacet
  facet normal -7.357235e-001 -6.772819e-001  -0.000000e+000
    outer loop
      vertex  7.066126e-002  1.061011e+000  3.937008e-001
      vertex  7.066126e-002  1.061011e+000  0.000000e+000
      vertex  8.233158e-002  1.048333e+000  0.000000e+000
    endloop
  endfacet
  facet normal -7.357235e-001 -6.772819e-001  0.000000e+000
    outer loop
      vertex  7.066126e-002  1.061011e+000  3.937008e-001
      vertex  8.233158e-002  1.048333e+000  0.000000e+000
      vertex  8.233158e-002  1.048333e+000  3.937008e-001
    endloop
  endfacet
  facet normal -8.371667e-001 -5.469479e-001  -0.000000e+000
    outer loop
      vertex  8.233158e-002  1.048333e+000  3.937008e-001
      vertex  8.233158e-002  1.048333e+000  0.000000e+000
      vertex  9.175612e-002  1.033908e+000  0.000000e+000
    endloop
  endfacet
  facet normal -8.371667e-001 -5.469479e-001  0.000000e+000
    outer loop
      vertex  8.233158e-002  1.048333e+000  3.937008e-001
      vertex  9.175612e-002  1.033908e+000  0.000000e+000
      vertex  9.175612e-002  1.033908e+000  3.937008e-001
    endloop
  endfacet
  facet normal -9.157739e-001 -4.016940e-001  -0.000000e+000
    outer loop
      vertex  9.175612e-002  1.033908e+000  3.937008e-001
      vertex  9.175612e-002  1.033908e+000  0.000000e+000
      vertex  9.867778e-002  1.018128e+000  0.000000e+000
    endloop
  endfacet
  facet normal -9.157739e-001 -4.016940e-001  0.000000e+000
    outer loop
      vertex  9.175612e-002  1.033908e+000  3.937008e-001
      vertex  9.867778e-002  1.018128e+000  0.000000e+000
      vertex  9.867778e-002  1.018128e+000  3.937008e-001
    endloop
  endfacet
  facet normal -9.694000e-001 -2.454866e-001  -0.000000e+000
    outer loop
      vertex  9.867778e-002  1.018128e+000  3.937008e-001
      vertex  9.867778e-002  1.018128e+000  0.000000e+000
      vertex  1.029078e-001  1.001424e+000  0.000000e+000
    endloop
  endfacet
  facet normal -9.694000e-001 -2.454866e-001  0.000000e+000
    outer loop
      vertex  9.867778e-002  1.018128e+000  3.937008e-001
      vertex  1.029078e-001  1.001424e+000  0.000000e+000
      vertex  1.029078e-001  1.001424e+000  3.937008e-001
    endloop
  endfacet
  facet normal -9.965844e-001 -8.257931e-002  -0.000000e+000
    outer loop
      vertex  1.029078e-001  1.001424e+000  3.937008e-001
      vertex  1.029078e-001  1.001424e+000  0.000000e+000
      vertex  1.043307e-001  9.842520e-001  0.000000e+000
    endloop
  endfacet
  facet normal -9.965844e-001 -8.257931e-002  0.000000e+000
    outer loop
      vertex  1.029078e-001  1.001424e+000  3.937008e-001
      vertex  1.043307e-001  9.842520e-001  0.000000e+000
      vertex  1.043307e-001  9.842520e-001  3.937008e-001
    endloop
  endfacet
  facet normal  0.000000e+000  0.000000e+000 -1.000000e+000
    outer loop
      vertex -3.937008e-001  0.000000e+000  0.000000e+000
      vertex -3.937008e-001  1.377953e+000  0.000000e+000
      vertex -9.175612e-002  9.345960e-001  0.000000e+000
    endloop
  endfacet
  facet normal  0.000000e+000  -0.000000e+000 -1.000000e+000
    outer loop
      vertex -3.937008e-001  0.000000e+000  0.000000e+000
      vertex -9.175612e-002  9.345960e-001  0.000000e+000
      vertex -8.233158e-002  9.201707e-001  0.000000e+000
    endloop
  endfacet
  facet normal  0.000000e+000  -0.000000e+000 -1.000000e+000
    outer loop
      vertex -3.937008e-001  0.000000e+000  0.000000e+000
      vertex -8.233158e-002  9.201707e-001  0.000000e+000
      vertex -7.066126e-002  9.074934e-001  0.000000e+000
    endloop
  endfacet
  facet normal  0.000000e+000  -0.000000e+000 -1.000000e+000
    outer loop
      vertex -3.937008e-001  0.000000e+000  0.000000e+000
      vertex -7.066126e-002  9.074934e-001  0.000000e+000
      vertex -5.706349e-002  8.969098e-001  0.000000e+000
    endloop
  endfacet
  facet normal  0.000000e+000  -0.000000e+000 -1.000000e+000
    outer loop
      vertex -3.937008e-001  0.000000e+000  0.000000e+000
      vertex -5.706349e-002  8.969098e-001  0.000000e+000
      vertex -4.190917e-002  8.887087e-001  0.000000e+000
    endloop
  endfacet
  facet normal  0.000000e+000  -0.000000e+000 -1.000000e+000
    outer loop
      vertex -3.937008e-001  0.000000e+000  0.000000e+000
      vertex -4.190917e-002  8.887087e-001  0.000000e+000
      vertex -2.561167e-002  8.831137e-001  0.000000e+000
    endloop
  endfacet
  facet normal  0.000000e+000  -0.000000e+000 -1.000000e+000
    outer loop
      vertex -3.937008e-001  0.000000e+000  0.000000e+000
      vertex -2.561167e-002  8.831137e-001  0.000000e+000
      vertex -8.615562e-003  8.802776e-001  0.000000e+000
    endloop
  endfacet
  facet normal  0.000000e+000  -0.000000e+000 -1.000000e+000
    outer loop
      vertex -3.937008e-001  0.000000e+000  0.000000e+000
      vertex -8.615562e-003  8.802776e-001  0.000000e+000
      vertex  8.615562e-003  8.802776e-001  0.000000e+000
    endloop
  endfacet
  facet normal  0.000000e+000  -0.000000e+000 -1.000000e+000
    outer loop
      vertex -3.937008e-001  0.000000e+000  0.000000e+000
      vertex  8.615562e-003  8.802776e-001  0.000000e+000
      vertex  2.561167e-002  8.831137e-001  0.000000e+000
    endloop
  endfacet
  facet normal  0.000000e+000  -0.000000e+000 -1.000000e+000
    outer loop
      vertex -3.937008e-001  0.000000e+000  0.000000e+000
      vertex  2.561167e-002  8.831137e-001  0.000000e+000
      vertex  4.190917e-002  8.887087e-001  0.000000e+000
    endloop
  endfacet
  facet normal  0.000000e+000  -0.000000e+000 -1.000000e+000
    outer loop
      vertex -3.937008e-001  0.000000e+000  0.000000e+000
      vertex  4.190917e-002  8.887087e-001  0.000000e+000
      vertex  5.706349e-002  8.969098e-001  0.000000e+000
    endloop
  endfacet
  facet normal  0.000000e+000  -0.000000e+000 -1.000000e+000
    outer loop
      vertex -3.937008e-001  0.000000e+000  0.000000e+000
      vertex  5.706349e-002  8.969098e-001  0.000000e+000
      vertex  7.066126e-002  9.074934e-001  0.000000e+000
    endloop
  endfacet
  facet normal  0.000000e+000  -0.000000e+000 -1.000000e+000
    outer loop
      vertex -3.937008e-001  0.000000e+000  0.000000e+000
      vertex  7.066126e-002  9.074934e-001  0.000000e+000
      vertex  8.233158e-002  9.201707e-001  0.000000e+000
    endloop
  endfacet
  facet normal  0.000000e+000  -0.000000e+000 -1.000000e+000
    outer loop
      vertex -3.937008e-001  0.000000e+000  0.000000e+000
      vertex  8.233158e-002  9.201707e-001  0.000000e+000
      vertex  9.175612e-002  9.345960e-001  0.000000e+000
    endloop
  endfacet
  facet normal  0.000000e+000  -0.000000e+000 -1.000000e+000
    outer loop
      vertex -3.937008e-001  0.000000e+000  0.000000e+000
      vertex  9.175612e-002  9.345960e-001  0.000000e+000
      vertex  3.937008e-001  1.377953e+000  0.000000e+000
    endloop
  endfacet
  facet normal  0.000000e+000  -0.000000e+000 -1.000000e+000
    outer loop
      vertex -3.937008e-001  0.000000e+000  0.000000e+000
      vertex  3.937008e-001  1.377953e+000  0.000000e+000
      vertex  3.937008e-001  0.000000e+000  0.000000e+000
    endloop
  endfacet
  facet normal  -0.000000e+000  0.000000e+000 -1.000000e+000
    outer loop
      vertex -3.937008e-001  1.377953e+000  0.000000e+000
      vertex  3.937008e-001  1.377953e+000  0.000000e+000
      vertex  8.615562e-003  1.088226e+000  0.000000e+000
    endloop
  endfacet
  facet normal  0.000000e+000  0.000000e+000 -1.000000e+000
    outer loop
      vertex -3.937008e-001  1.377953e+000  0.000000e+000
      vertex  8.615562e-003  1.088226e+000  0.000000e+000
      vertex -8.615562e-003  1.088226e+000  0.000000e+000
    endloop
  endfacet
  facet normal  -0.000000e+000  0.000000e+000 -1.000000e+000
    outer loop
      vertex -3.937008e-001  1.377953e+000  0.000000e+000
      vertex -8.615562e-003  1.088226e+000  0.000000e+000
      vertex -2.561167e-002  1.085390e+000  0.000000e+000
    endloop
  endfacet
  facet normal  -0.000000e+000  0.000000e+000 -1.000000e+000
    outer loop
      vertex -3.937008e-001  1.377953e+000  0.000000e+000
      vertex -2.561167e-002  1.085390e+000  0.000000e+000
      vertex -4.190917e-002  1.079795e+000  0.000000e+000
    endloop
  endfacet
  facet normal  -0.000000e+000  0.000000e+000 -1.000000e+000
    outer loop
      vertex -3.937008e-001  1.377953e+000  0.000000e+000
      vertex -4.190917e-002  1.079795e+000  0.000000e+000
      vertex -5.706349e-002  1.071594e+000  0.000000e+000
    endloop
  endfacet
  facet normal  -0.000000e+000  0.000000e+000 -9.999999e-001
    outer loop
      vertex -3.937008e-001  1.377953e+000  0.000000e+000
      vertex -5.706349e-002  1.071594e+000  0.000000e+000
      vertex -7.066126e-002  1.061011e+000  0.000000e+000
    endloop
  endfacet
  facet normal  -0.000000e+000  0.000000e+000 -1.000000e+000
    outer loop
      vertex -3.937008e-001  1.377953e+000  0.000000e+000
      vertex -7.066126e-002  1.061011e+000  0.000000e+000
      vertex -8.233158e-002  1.048333e+000  0.000000e+000
    endloop
  endfacet
  facet normal  -0.000000e+000  0.000000e+000 -1.000000e+000
    outer loop
      vertex -3.937008e-001  1.377953e+000  0.000000e+000
      vertex -8.233158e-002  1.048333e+000  0.000000e+000
      vertex -9.175612e-002  1.033908e+000  0.000000e+000
    endloop
  endfacet
  facet normal  -0.000000e+000  0.000000e+000 -1.000000e+000
    outer loop
      vertex -3.937008e-001  1.377953e+000  0.000000e+000
      vertex -9.175612e-002  1.033908e+000  0.000000e+000
      vertex -9.867778e-002  1.018128e+000  0.000000e+000
    endloop
  endfacet
  facet normal  -0.000000e+000  0.000000e+000 -1.000000e+000
    outer loop
      vertex -3.937008e-001  1.377953e+000  0.000000e+000
      vertex -9.867778e-002  1.018128e+000  0.000000e+000
      vertex -1.029078e-001  1.001424e+000  0.000000e+000
    endloop
  endfacet
  facet normal  -0.000000e+000  0.000000e+000 -1.000000e+000
    outer loop
      vertex -3.937008e-001  1.377953e+000  0.000000e+000
      vertex -1.029078e-001  1.001424e+000  0.000000e+000
      vertex -1.043307e-001  9.842520e-001  0.000000e+000
    endloop
  endfacet
  facet normal  -0.000000e+000  -0.000000e+000 -1.000000e+000
    outer loop
      vertex -3.937008e-001  1.377953e+000  0.000000e+000
      vertex -1.043307e-001  9.842520e-001  0.000000e+000
      vertex -1.029078e-001  9.670797e-001  0.000000e+000
    endloop
  endfacet
  facet normal  -0.000000e+000  -0.000000e+000 -1.000000e+000
    outer loop
      vertex -3.937008e-001  1.377953e+000  0.000000e+000
      vertex -1.029078e-001  9.670797e-001  0.000000e+000
      vertex -9.867778e-002  9.503759e-001  0.000000e+000
    endloop
  endfacet
  facet normal  -0.000000e+000  -0.000000e+000 -9.999999e-001
    outer loop
      vertex -3.937008e-001  1.377953e+000  0.000000e+000
      vertex -9.867778e-002  9.503759e-001  0.000000e+000
      vertex -9.175612e-002  9.345960e-001  0.000000e+000
    endloop
  endfacet
  facet normal  0.000000e+000  0.000000e+000 -1.000000e+000
    outer loop
      vertex  3.937008e-001  1.377953e+000  0.000000e+000
      vertex  9.175612e-002  9.345960e-001  0.000000e+000
      vertex  9.867778e-002  9.503759e-001  0.000000e+000
    endloop
  endfacet
  facet normal  0.000000e+000  0.000000e+000 -1.000000e+000
    outer loop
      vertex  3.937008e-001  1.377953e+000  0.000000e+000
      vertex  9.867778e-002  9.503759e-001  0.000000e+000
      vertex  1.029078e-001  9.670797e-001  0.000000e+000
    endloop
  endfacet
  facet normal  0.000000e+000  0.000000e+000 -1.000000e+000
    outer loop
      vertex  3.937008e-001  1.377953e+000  0.000000e+000
      vertex  1.029078e-001  9.670797e-001  0.000000e+000
      vertex  1.043307e-001  9.842520e-001  0.000000e+000
    endloop
  endfacet
  facet normal  0.000000e+000  0.000000e+000 -1.000000e+000
    outer loop
      vertex  3.937008e-001  1.377953e+000  0.000000e+000
      vertex  1.043307e-001  9.842520e-001  0.000000e+000
      vertex  1.029078e-001  1.001424e+000  0.000000e+000
    endloop
  endfacet
  facet normal  0.000000e+000  0.000000e+000 -1.000000e+000
    outer loop
      vertex  3.937008e-001  1.377953e+000  0.000000e+000
      vertex  1.029078e-001  1.001424e+000  0.000000e+000
      vertex  9.867778e-002  1.018128e+000  0.000000e+000
    endloop
  endfacet
  facet normal  0.000000e+000  0.000000e+000 -1.000000e+000
    outer loop
      vertex  3.937008e-001  1.377953e+000  0.000000e+000
      vertex  9.867778e-002  1.018128e+000  0.000000e+000
      vertex  9.175612e-002  1.033908e+000  0.000000e+000
    endloop
  endfacet
  facet normal  0.000000e+000  0.000000e+000 -1.000000e+000
    outer loop
      vertex  3.937008e-001  1.377953e+000  0.000000e+000
      vertex  9.175612e-002  1.033908e+000  0.000000e+000
      vertex  8.233158e-002  1.048333e+000  0.000000e+000
    endloop
  endfacet
  facet normal  0.000000e+000  0.000000e+000 -1.000000e+000
    outer loop
      vertex  3.937008e-001  1.377953e+000  0.000000e+000
      vertex  8.233158e-002  1.048333e+000  0.000000e+000
      vertex  7.066126e-002  1.061011e+000  0.000000e+000
    endloop
  endfacet
  facet normal  0.000000e+000  0.000000e+000 -9.999999e-001
    outer loop
      vertex  3.937008e-001  1.377953e+000  0.000000e+000
      vertex  7.066126e-002  1.061011e+000  0.000000e+000
      vertex  5.706349e-002  1.071594e+000  0.000000e+000
    endloop
  endfacet
  facet normal  0.000000e+000  0.000000e+000 -1.000000e+000
    outer loop
      vertex  3.937008e-001  1.377953e+000  0.000000e+000
      vertex  5.706349e-002  1.071594e+000  0.000000e+000
      vertex  4.190917e-002  1.079795e+000  0.000000e+000
    endloop
  endfacet
  facet normal  0.000000e+000  0.000000e+000 -1.000000e+000
    outer loop
      vertex  3.937008e-001  1.377953e+000  0.000000e+000
      vertex  4.190917e-002  1.079795e+000  0.000000e+000
      vertex  2.561167e-002  1.085390e+000  0.000000e+000
    endloop
  endfacet
  facet normal  0.000000e+000  0.000000e+000 -1.000000e+000
    outer loop
      vertex  3.937008e-001  1.377953e+000  0.000000e+000
      vertex  2.561167e-002  1.085390e+000  0.000000e+000
      vertex  8.615562e-003  1.088226e+000  0.000000e+000
    endloop
  endfacet
  facet normal  1.000000e+000  0.000000e+000  -0.000000e+000
    outer loop
      vertex  3.937008e-001  0.000000e+000  0.000000e+000
      vertex  3.937008e-001  1.377953e+000  0.000000e+000
      vertex  3.937008e-001  1.377953e+000  3.937008e-001
    endloop
  endfacet
  facet normal  1.000000e+000  0.000000e+000  0.000000e+000
    outer loop
      vertex  3.937008e-001  0.000000e+000  0.000000e+000
      vertex  3.937008e-001  1.377953e+000  3.937008e-001
      vertex  3.937008e-001  1.102362e+000  3.937008e-001
    endloop
  endfacet
  facet normal  1.000000e+000  0.000000e+000  0.000000e+000
    outer loop
      vertex  3.937008e-001  0.000000e+000  0.000000e+000
      vertex  3.937008e-001  1.102362e+000  3.937008e-001
      vertex  3.937008e-001  8.661417e-001  3.937008e-001
    endloop
  endfacet
  facet normal  9.999999e-001  0.000000e+000  0.000000e+000
    outer loop
      vertex  3.937008e-001  0.000000e+000  0.000000e+000
      vertex  3.937008e-001  8.661417e-001  3.937008e-001
      vertex  3.937008e-001  0.000000e+000  3.937008e-001
    endloop
  endfacet
  facet normal  1.000000e+000  0.000000e+000  0.000000e+000
    outer loop
      vertex  3.937008e-001  1.102362e+000  3.937008e-001
      vertex  3.937008e-001  1.102362e+000  4.724410e-001
      vertex  3.937008e-001  8.661417e-001  3.937008e-001
    endloop
  endfacet
  facet normal  1.000000e+000  0.000000e+000  0.000000e+000
    outer loop
      vertex  3.937008e-001  8.661417e-001  3.937008e-001
      vertex  3.937008e-001  1.102362e+000  4.724410e-001
      vertex  3.937008e-001  9.842520e-001  4.724410e-001
    endloop
  endfacet
  facet normal  1.000000e+000  0.000000e+000  0.000000e+000
    outer loop
      vertex  3.937008e-001  8.661417e-001  3.937008e-001
      vertex  3.937008e-001  9.842520e-001  4.724410e-001
      vertex  3.937008e-001  8.661417e-001  4.724410e-001
    endloop
  endfacet
  facet normal -9.999999e-001  0.000000e+000  0.000000e+000
    outer loop
      vertex -3.937008e-001  0.000000e+000  0.000000e+000
      vertex -3.937008e-001  0.000000e+000  3.937008e-001
      vertex -3.937008e-001  8.661417e-001  3.937008e-001
    endloop
  endfacet
  facet normal -1.000000e+000  0.000000e+000  -0.000000e+000
    outer loop
      vertex -3.937008e-001  0.000000e+000  0.000000e+000
      vertex -3.937008e-001  8.661417e-001  3.937008e-001
      vertex -3.937008e-001  1.102362e+000  3.937008e-001
    endloop
  endfacet
  facet normal -1.000000e+000  0.000000e+000  -0.000000e+000
    outer loop
      vertex -3.937008e-001  0.000000e+000  0.000000e+000
      vertex -3.937008e-001  1.102362e+000  3.937008e-001
      vertex -3.937008e-001  1.377953e+000  3.937008e-001
    endloop
  endfacet
  facet normal -1.000000e+000  0.000000e+000  -0.000000e+000
    outer loop
      vertex -3.937008e-001  0.000000e+000  0.000000e+000
      vertex -3.937008e-001  1.377953e+000  3.937008e-001
      vertex -3.937008e-001  1.377953e+000  0.000000e+000
    endloop
  endfacet
  facet normal -1.000000e+000  -0.000000e+000  0.000000e+000
    outer loop
      vertex -3.937008e-001  8.661417e-001  4.724410e-001
      vertex -3.937008e-001  9.842520e-001  4.724410e-001
      vertex -3.937008e-001  8.661417e-001  3.937008e-001
    endloop
  endfacet
  facet normal -1.000000e+000  0.000000e+000  0.000000e+000
    outer loop
      vertex -3.937008e-001  8.661417e-001  3.937008e-001
      vertex -3.937008e-001  9.842520e-001  4.724410e-001
      vertex -3.937008e-001  1.102362e+000  4.724410e-001
    endloop
  endfacet
  facet normal -1.000000e+000  0.000000e+000  -0.000000e+000
    outer loop
      vertex -3.937008e-001  8.661417e-001  3.937008e-001
      vertex -3.937008e-001  1.102362e+000  4.724410e-001
      vertex -3.937008e-001  1.102362e+000  3.937008e-001
    endloop
  endfacet
  facet normal  0.000000e+000 -1.000000e+000  0.000000e+000
    outer loop
      vertex -3.937008e-001  0.000000e+000  0.000000e+000
      vertex  3.937008e-001  0.000000e+000  0.000000e+000
      vertex -3.937008e-001  0.000000e+000  3.937008e-001
    endloop
  endfacet
  facet normal  0.000000e+000 -1.000000e+000  0.000000e+000
    outer loop
      vertex -3.937008e-001  0.000000e+000  3.937008e-001
      vertex  3.937008e-001  0.000000e+000  0.000000e+000
      vertex  3.937008e-001  0.000000e+000  3.937008e-001
    endloop
  endfacet
  facet normal  0.000000e+000  1.000000e+000  0.000000e+000
    outer loop
      vertex -3.937008e-001  1.377953e+000  3.937008e-001
      vertex  3.937008e-001  1.377953e+000  3.937008e-001
      vertex -3.937008e-001  1.377953e+000  0.000000e+000
    endloop
  endfacet
  facet normal  0.000000e+000  1.000000e+000  0.000000e+000
    outer loop
      vertex -3.937008e-001  1.377953e+000  0.000000e+000
      vertex  3.937008e-001  1.377953e+000  3.937008e-001
      vertex  3.937008e-001  1.377953e+000  0.000000e+000
    endloop
  endfacet
endsolid CATIA STL
